OverflowHeadline.glyphspackage
{
color = 6;
glyphname = numbersign;
kernLeft = KO_numbersign;
kernRight = KO_numbersign;
layers = (
{
layerId = "A0F3C0B3-6058-4691-93DD-C4034CAB0732";
shapes = (
{
closed = 1;
nodes = (
(79,464,l),
(641,464,l),
(641,530,l),
(79,530,l)
);
},
{
closed = 1;
nodes = (
(25,165,l),
(587,165,l),
(587,231,l),
(25,231,l)
);
},
{
closed = 1;
nodes = (
(104,0,l),
(176,0,l),
(306,700,l),
(234,700,l)
);
},
{
closed = 1;
nodes = (
(360,0,l),
(432,0,l),
(562,700,l),
(490,700,l)
);
}
);
width = 666;
},
{
layerId = "7B07347B-11DE-4909-BA20-F43005BA30D7";
shapes = (
{
closed = 1;
nodes = (
(74,434,l),
(636,434,l),
(636,560,l),
(74,560,l)
);
},
{
closed = 1;
nodes = (
(20,135,l),
(582,135,l),
(582,261,l),
(20,261,l)
);
},
{
closed = 1;
nodes = (
(69,0,l),
(206,0,l),
(336,700,l),
(199,700,l)
);
},
{
closed = 1;
nodes = (
(320,0,l),
(457,0,l),
(587,700,l),
(450,700,l)
);
}
);
width = 656;
}
);
unicode = 35;
}
{
color = 6;
glyphname = ampersand;
kernLeft = KO_ampersand;
kernRight = KO_ampersand;
layers = (
{
layerId = "A0F3C0B3-6058-4691-93DD-C4034CAB0732";
shapes = (
{
closed = 1;
nodes = (
(397,0,l),
(397,66,l),
(299,66,l),
(181,66,o),
(111,122,o),
(111,200,cs),
(111,295,o),
(198,322,o),
(364,322,c),
(364,388,l),
(198,388,o),
(116,415,o),
(116,510,cs),
(116,581,o),
(178,644,o),
(293,644,cs),
(412,644,o),
(467,580,o),
(467,478,c),
(542,478,l),
(542,619,o),
(448,716,o),
(298,716,cs),
(138,716,o),
(35,622,o),
(35,510,cs),
(35,421,o),
(108,345,o),
(244,336,c),
(243,367,l),
(103,359,o),
(30,279,o),
(30,190,cs),
(30,78,o),
(129,0,o),
(299,0,c)
);
},
{
closed = 1;
nodes = (
(542,0,l),
(542,478,l),
(467,478,l),
(467,0,l)
);
},
{
closed = 1;
nodes = (
(626,322,l),
(626,388,l),
(364,388,l),
(364,322,l)
);
}
);
width = 651;
},
{
layerId = "7B07347B-11DE-4909-BA20-F43005BA30D7";
shapes = (
{
closed = 1;
nodes = (
(353,0,l),
(353,126,l),
(300,126,l),
(222,126,o),
(187,152,o),
(187,200,cs),
(187,265,o),
(234,292,o),
(370,292,c),
(370,418,l),
(234,418,o),
(192,445,o),
(192,510,cs),
(192,551,o),
(224,584,o),
(299,584,cs),
(377,584,o),
(413,551,o),
(413,478,c),
(558,478,l),
(558,620,o),
(456,716,o),
(304,716,cs),
(144,716,o),
(41,622,o),
(41,510,cs),
(41,421,o),
(94,345,o),
(230,336,c),
(229,367,l),
(89,359,o),
(36,279,o),
(36,190,cs),
(36,78,o),
(135,0,o),
(305,0,c)
);
},
{
closed = 1;
nodes = (
(558,0,l),
(558,478,l),
(413,478,l),
(413,0,l)
);
},
{
closed = 1;
nodes = (
(652,292,l),
(652,418,l),
(370,418,l),
(370,292,l)
);
}
);
width = 672;
},
{
associatedMasterId = "A0F3C0B3-6058-4691-93DD-C4034CAB0732";
layerId = "37107F0D-BE47-4300-83A2-3137F2B39130";
name = "1 Sep 25 at 14:35";
shapes = (
{
closed = 1;
nodes = (
(397,66,l),
(299,66,l),
(181,66,o),
(111,122,o),
(111,200,cs),
(111,295,o),
(198,322,o),
(364,322,c),
(364,388,l),
(198,388,o),
(116,415,o),
(116,510,cs),
(116,581,o),
(178,644,o),
(293,644,cs),
(412,644,o),
(467,580,o),
(467,478,c),
(542,478,l),
(542,619,o),
(448,716,o),
(298,716,cs),
(138,716,o),
(35,622,o),
(35,510,cs),
(35,421,o),
(108,345,o),
(244,336,c),
(243,367,l),
(103,359,o),
(30,279,o),
(30,190,cs),
(30,78,o),
(129,0,o),
(299,0,c),
(397,0,l)
);
},
{
closed = 1;
nodes = (
(467,478,l),
(467,0,l),
(542,0,l),
(542,478,l)
);
},
{
closed = 1;
nodes = (
(364,388,l),
(364,322,l),
(626,322,l),
(626,388,l)
);
}
);
width = 651;
}
);
metricRight = "=ampersand.ss01";
unicode = 38;
}
{
color = 6;
glyphname = parenright;
kernLeft = KO_parenright;
kernRight = KO_parenright;
layers = (
{
layerId = "A0F3C0B3-6058-4691-93DD-C4034CAB0732";
shapes = (
{
closed = 1;
nodes = (
(25,716,l),
(98,568,o),
(137,440,o),
(137,272,c),
(137,104,o),
(98,-24,o),
(25,-172,c),
(85,-172,l),
(155,-44,o),
(209,84,o),
(209,272,cs),
(209,460,o),
(155,588,o),
(85,716,c)
);
}
);
width = 242;
},
{
layerId = "7B07347B-11DE-4909-BA20-F43005BA30D7";
shapes = (
{
closed = 1;
nodes = (
(20,716,l),
(80,568,o),
(110,440,o),
(110,272,c),
(110,104,o),
(80,-24,o),
(20,-172,c),
(112,-172,l),
(182,-44,o),
(236,84,o),
(236,272,cs),
(236,460,o),
(182,588,o),
(112,716,c)
);
}
);
width = 264;
}
);
metricRight = "=O";
unicode = 41;
}
{
color = 6;
glyphname = hyphen;
kernLeft = KO_hyphen;
kernRight = KO_hyphen;
layers = (
{
layerId = "7B07347B-11DE-4909-BA20-F43005BA30D7";
shapes = (
{
closed = 1;
nodes = (
(41,259,l),
(356,259,l),
(356,381,l),
(41,381,l)
);
}
);
width = 396;
},
{
layerId = "A0F3C0B3-6058-4691-93DD-C4034CAB0732";
shapes = (
{
closed = 1;
nodes = (
(46,289,l),
(361,289,l),
(361,351,l),
(46,351,l)
);
}
);
width = 406;
},
{
associatedMasterId = "A0F3C0B3-6058-4691-93DD-C4034CAB0732";
layerId = "A3FF7654-257B-41C4-8A2B-4ADDE2A29277";
name = "1 Sep 25 at 14:33";
shapes = (
{
closed = 1;
nodes = (
(46,289,l),
(361,289,l),
(361,351,l),
(45,351,l)
);
}
);
width = 406;
}
);
unicode = 45;
userData = {
KernOnName = hyphen;
KernOnSpecialSpacing = {
L = hyphen;
R = hyphen;
};
};
}
{
color = 6;
glyphname = period;
kernLeft = KO_comma;
kernRight = KO_period;
layers = (
{
layerId = "7B07347B-11DE-4909-BA20-F43005BA30D7";
shapes = (
{
closed = 1;
nodes = (
(30,0,l),
(183,0,l),
(183,153,l),
(30,153,l)
);
}
);
width = 213;
},
{
layerId = "A0F3C0B3-6058-4691-93DD-C4034CAB0732";
shapes = (
{
closed = 1;
nodes = (
(35,0,l),
(124,0,l),
(124,93,l),
(35,93,l)
);
}
);
width = 159;
}
);
unicode = 46;
userData = {
KernOnName = period;
KernOnSpecialSpacing = {
L = period;
R = period;
};
};
}
{
color = 6;
glyphname = zero;
layers = (
{
layerId = "7B07347B-11DE-4909-BA20-F43005BA30D7";
shapes = (
{
closed = 1;
nodes = (
(526,-16,o),
(619,148,o),
(619,351,cs),
(619,552,o),
(526,716,o),
(324,716,cs),
(121,716,o),
(28,552,o),
(28,351,cs),
(28,148,o),
(121,-16,o),
(324,-16,cs)
);
},
{
closed = 1;
nodes = (
(217,116,o),
(179,231,o),
(179,351,cs),
(179,469,o),
(217,584,o),
(324,584,cs),
(430,584,o),
(468,469,o),
(468,351,cs),
(468,231,o),
(430,116,o),
(324,116,cs)
);
}
);
width = 647;
},
{
layerId = "A0F3C0B3-6058-4691-93DD-C4034CAB0732";
shapes = (
{
closed = 1;
nodes = (
(531,-16,o),
(624,148,o),
(624,351,cs),
(624,552,o),
(531,716,o),
(329,716,cs),
(126,716,o),
(33,552,o),
(33,351,cs),
(33,148,o),
(126,-16,o),
(329,-16,cs)
);
},
{
closed = 1;
nodes = (
(192,56,o),
(111,181,o),
(111,351,cs),
(111,519,o),
(192,644,o),
(329,644,cs),
(465,644,o),
(546,519,o),
(546,351,cs),
(546,181,o),
(465,56,o),
(329,56,cs)
);
}
);
width = 657;
}
);
metricLeft = "=O";
metricRight = "=O";
unicode = 48;
userData = {
KernOnSpecialSpacing = {
L = NoKerning;
R = NoKerning;
};
};
}
{
color = 6;
glyphname = two;
layers = (
{
layerId = "7B07347B-11DE-4909-BA20-F43005BA30D7";
shapes = (
{
closed = 1;
nodes = (
(188,0,l),
(188,299,o),
(552,233,o),
(552,481,cs),
(552,613,o),
(456,716,o),
(286,716,cs),
(136,716,o),
(21,619,o),
(21,478,c),
(173,478,l),
(179,544,o),
(212,584,o),
(291,584,cs),
(361,584,o),
(401,548,o),
(401,481,cs),
(401,329,o),
(20,350,o),
(15,0,c)
);
},
{
closed = 1;
nodes = (
(15,0,l),
(554,0,l),
(554,126,l),
(98,126,l)
);
}
);
width = 579;
},
{
layerId = "A0F3C0B3-6058-4691-93DD-C4034CAB0732";
shapes = (
{
closed = 1;
nodes = (
(118,0,l),
(118,309,o),
(549,233,o),
(549,508,cs),
(549,613,o),
(468,716,o),
(298,716,cs),
(148,716,o),
(38,619,o),
(38,478,c),
(115,478,l),
(121,574,o),
(178,644,o),
(303,644,cs),
(404,644,o),
(471,588,o),
(471,504,cs),
(471,297,o),
(35,350,o),
(30,0,c)
);
},
{
closed = 1;
nodes = (
(30,0,l),
(551,0,l),
(551,68,l),
(113,68,l)
);
}
);
width = 581;
},
{
associatedMasterId = "7B07347B-11DE-4909-BA20-F43005BA30D7";
layerId = "AC8CEEBA-51C9-4039-807A-7A6BB5874E8E";
name = "2 Sep 25 at 11:59";
shapes = (
{
closed = 1;
nodes = (
(198,0,l),
(198,229,o),
(562,233,o),
(562,481,cs),
(562,613,o),
(466,716,o),
(296,716,cs),
(146,716,o),
(31,619,o),
(31,478,c),
(183,478,l),
(189,544,o),
(222,584,o),
(301,584,cs),
(371,584,o),
(411,548,o),
(411,481,cs),
(411,329,o),
(30,280,o),
(25,0,c)
);
},
{
closed = 1;
nodes = (
(25,0,l),
(564,0,l),
(564,126,l),
(108,126,l)
);
}
);
width = 589;
}
);
unicode = 50;
userData = {
KernOnSpecialSpacing = {
L = NoKerning;
R = NoKerning;
};
};
}
{
color = 6;
glyphname = seven;
layers = (
{
layerId = "7B07347B-11DE-4909-BA20-F43005BA30D7";
shapes = (
{
closed = 1;
nodes = (
(313,0,l),
(313,314,o),
(387,489,o),
(505,601,c),
(505,700,l),
(401,700,l),
(246,560,o),
(161,303,o),
(161,0,c)
);
},
{
closed = 1;
nodes = (
(20,574,l),
(467,574,l),
(467,700,l),
(20,700,l)
);
}
);
width = 525;
},
{
layerId = "A0F3C0B3-6058-4691-93DD-C4034CAB0732";
shapes = (
{
closed = 1;
nodes = (
(278,0,l),
(278,314,o),
(372,519,o),
(490,631,c),
(490,700,l),
(464,700,l),
(309,560,o),
(201,303,o),
(201,0,c)
);
},
{
closed = 1;
nodes = (
(25,634,l),
(472,634,l),
(472,700,l),
(25,700,l)
);
}
);
width = 515;
}
);
unicode = 55;
userData = {
KernOnSpecialSpacing = {
L = NoKerning;
R = NoKerning;
};
};
}
{
color = 6;
glyphname = nine;
layers = (
{
layerId = "7B07347B-11DE-4909-BA20-F43005BA30D7";
shapes = (
{
closed = 1;
nodes = (
(45,198,l),
(69,70,o),
(152,-16,o),
(293,-16,cs),
(476,-16,o),
(575,123,o),
(575,369,cs),
(575,633,o),
(447,716,o),
(297,716,cs),
(127,716,o),
(28,610,o),
(28,473,cs),
(28,336,o),
(127,230,o),
(291,230,cs),
(375,230,o),
(442,266,o),
(473,320,c),
(435,327,l),
(431,172,o),
(362,116,o),
(298,116,cs),
(229,116,o),
(209,151,o),
(200,198,c)
);
},
{
closed = 1;
nodes = (
(413,400,o),
(367,360,o),
(296,360,cs),
(225,360,o),
(179,400,o),
(179,470,cs),
(179,536,o),
(225,584,o),
(297,584,cs),
(367,584,o),
(413,536,o),
(413,468,cs)
);
}
);
width = 603;
},
{
layerId = "A0F3C0B3-6058-4691-93DD-C4034CAB0732";
shapes = (
{
closed = 1;
nodes = (
(50,198,l),
(74,70,o),
(157,-16,o),
(298,-16,cs),
(481,-16,o),
(580,123,o),
(580,369,cs),
(580,633,o),
(452,716,o),
(302,716,cs),
(132,716,o),
(33,610,o),
(33,473,cs),
(33,336,o),
(132,230,o),
(296,230,cs),
(416,230,o),
(506,310,o),
(530,380,c),
(504,378,l),
(504,151,o),
(426,56,o),
(303,56,cs),
(181,56,o),
(144,151,o),
(135,198,c)
);
},
{
closed = 1;
nodes = (
(488,372,o),
(424,300,o),
(300,300,cs),
(176,300,o),
(111,372,o),
(111,470,cs),
(111,568,o),
(176,644,o),
(301,644,cs),
(424,644,o),
(488,568,o),
(488,468,cs)
);
}
);
width = 613;
}
);
metricRight = "=O";
unicode = 57;
userData = {
KernOnSpecialSpacing = {
L = NoKerning;
R = NoKerning;
};
};
}
{
color = 6;
glyphname = equal;
kernLeft = KO_equal;
kernRight = KO_equal;
layers = (
{
layerId = "A0F3C0B3-6058-4691-93DD-C4034CAB0732";
shapes = (
{
closed = 1;
nodes = (
(46,438,l),
(536,438,l),
(536,504,l),
(46,504,l)
);
},
{
closed = 1;
nodes = (
(46,238,l),
(536,238,l),
(536,304,l),
(46,304,l)
);
}
);
width = 581;
},
{
layerId = "7B07347B-11DE-4909-BA20-F43005BA30D7";
shapes = (
{
closed = 1;
nodes = (
(41,419,l),
(531,419,l),
(531,541,l),
(41,541,l)
);
},
{
closed = 1;
nodes = (
(41,199,l),
(531,199,l),
(531,321,l),
(41,321,l)
);
}
);
width = 571;
},
{
associatedMasterId = "A0F3C0B3-6058-4691-93DD-C4034CAB0732";
layerId = "0DC6DE8B-9774-4466-997F-BD3349D2DB3E";
name = "1 Sep 25 at 14:37";
shapes = (
{
closed = 1;
nodes = (
(46,439,l),
(536,439,l),
(536,501,l),
(45,501,l)
);
},
{
closed = 1;
nodes = (
(46,239,l),
(536,239,l),
(536,301,l),
(45,301,l)
);
}
);
width = 581;
}
);
metricRight = "=hyphen";
unicode = 61;
}
{
color = 6;
glyphname = question;
kernLeft = KO_question;
kernRight = KO_question;
layers = (
{
layerId = "7B07347B-11DE-4909-BA20-F43005BA30D7";
shapes = (
{
closed = 1;
nodes = (
(325,220,l),
(325,310,o),
(511,346,o),
(511,501,cs),
(511,633,o),
(423,716,o),
(265,716,cs),
(138,716,o),
(20,619,o),
(20,478,c),
(172,478,l),
(178,544,o),
(208,584,o),
(270,584,cs),
(336,584,o),
(360,548,o),
(360,501,cs),
(360,399,o),
(182,393,o),
(182,220,c)
);
},
{
closed = 1;
nodes = (
(330,0,l),
(330,153,l),
(177,153,l),
(177,0,l)
);
}
);
width = 531;
},
{
layerId = "A0F3C0B3-6058-4691-93DD-C4034CAB0732";
shapes = (
{
closed = 1;
nodes = (
(277,190,l),
(277,346,o),
(486,329,o),
(486,511,cs),
(486,619,o),
(410,716,o),
(260,716,cs),
(130,716,o),
(25,619,o),
(25,478,c),
(102,478,l),
(108,574,o),
(160,644,o),
(265,644,cs),
(346,644,o),
(408,595,o),
(408,511,cs),
(408,378,o),
(199,388,o),
(199,190,c)
);
},
{
closed = 1;
nodes = (
(283,0,l),
(283,93,l),
(194,93,l),
(194,0,l)
);
}
);
width = 511;
}
);
unicode = 63;
}
{
color = 6;
glyphname = B;
kernLeft = KO_H;
kernRight = KO_B;
layers = (
{
anchors = (
{
name = bottom;
pos = (307,0);
},
{
name = center;
pos = (159,175);
},
{
name = top;
pos = (307,700);
}
);
layerId = "7B07347B-11DE-4909-BA20-F43005BA30D7";
shapes = (
{
closed = 1;
nodes = (
(52,0,l),
(197,0,l),
(197,700,l),
(52,700,l)
);
},
{
closed = 1;
nodes = (
(107,290,l),
(304,290,ls),
(370,290,o),
(428,281,o),
(428,211,cs),
(428,141,o),
(370,126,o),
(304,126,cs),
(107,126,l),
(107,0,l),
(304,0,ls),
(456,0,o),
(579,50,o),
(579,211,cs),
(579,302,o),
(509,371,o),
(419,375,c),
(419,342,l),
(512,347,o),
(540,430,o),
(540,495,cs),
(540,656,o),
(417,700,o),
(265,700,cs),
(107,700,l),
(107,574,l),
(265,574,ls),
(331,574,o),
(389,565,o),
(389,495,cs),
(389,425,o),
(331,416,o),
(265,416,cs),
(107,416,l)
);
}
);
width = 614;
},
{
anchors = (
{
name = bottom;
pos = (310,0);
},
{
name = center;
pos = (162,175);
},
{
name = top;
pos = (310,700);
}
);
layerId = "A0F3C0B3-6058-4691-93DD-C4034CAB0732";
shapes = (
{
closed = 1;
nodes = (
(57,0,l),
(132,0,l),
(132,700,l),
(57,700,l)
);
},
{
closed = 1;
nodes = (
(112,320,l),
(307,320,ls),
(438,320,o),
(501,276,o),
(501,191,cs),
(501,95,o),
(438,66,o),
(304,66,cs),
(112,66,l),
(112,0,l),
(304,0,ls),
(456,0,o),
(579,40,o),
(579,191,cs),
(579,303,o),
(478,366,o),
(374,366,c),
(374,348,l),
(478,348,o),
(545,429,o),
(545,505,cs),
(545,655,o),
(422,700,o),
(270,700,cs),
(112,700,l),
(112,634,l),
(270,634,ls),
(417,634,o),
(467,597,o),
(467,509,cs),
(467,419,o),
(406,386,o),
(275,386,cs),
(112,386,l)
);
}
);
width = 609;
}
);
unicode = 66;
userData = {
KernOnName = B;
};
}
{
color = 6;
glyphname = D;
kernLeft = KO_H;
kernRight = KO_O;
layers = (
{
anchors = (
{
name = bottom;
pos = (349,0);
},
{
name = center;
pos = (179,350);
},
{
name = top;
pos = (329,700);
}
);
layerId = "7B07347B-11DE-4909-BA20-F43005BA30D7";
shapes = (
{
closed = 1;
nodes = (
(314,0,l),
(536,0,o),
(659,148,o),
(659,351,cs),
(659,552,o),
(536,700,o),
(314,700,c),
(52,700,l),
(52,0,l)
);
},
{
closed = 1;
nodes = (
(197,574,l),
(314,574,ls),
(450,574,o),
(508,469,o),
(508,351,cs),
(508,231,o),
(450,126,o),
(314,126,cs),
(197,126,l)
);
}
);
width = 687;
},
{
anchors = (
{
name = bottom;
pos = (329,0);
},
{
name = center;
pos = (172,350);
},
{
name = top;
pos = (329,700);
}
);
layerId = "A0F3C0B3-6058-4691-93DD-C4034CAB0732";
shapes = (
{
closed = 1;
nodes = (
(269,0,ls),
(491,0,o),
(614,148,o),
(614,351,cs),
(614,552,o),
(491,700,o),
(269,700,cs),
(57,700,l),
(57,0,l)
);
},
{
closed = 1;
nodes = (
(132,632,l),
(269,632,ls),
(450,632,o),
(536,509,o),
(536,351,cs),
(536,191,o),
(450,68,o),
(269,68,cs),
(132,68,l)
);
}
);
width = 647;
},
{
anchors = (
{
name = bottom;
pos = (329,0);
},
{
name = center;
pos = (172,350);
},
{
name = top;
pos = (329,700);
}
);
associatedMasterId = "A0F3C0B3-6058-4691-93DD-C4034CAB0732";
layerId = "55ABC993-1A5E-4256-96C4-FB413B669342";
name = "1 Sep 25 at 14:53";
shapes = (
{
closed = 1;
nodes = (
(57,0,l),
(132,0,l),
(132,700,l),
(57,700,l)
);
},
{
closed = 1;
nodes = (
(132,0,l),
(269,0,l),
(269,68,l),
(132,68,l)
);
},
{
closed = 1;
nodes = (
(269,0,l),
(491,0,o),
(614,148,o),
(614,351,cs),
(614,552,o),
(491,700,o),
(269,700,c),
(269,632,l),
(450,632,o),
(536,509,o),
(536,351,cs),
(536,191,o),
(450,68,o),
(269,68,c)
);
},
{
closed = 1;
nodes = (
(132,632,l),
(269,632,l),
(269,700,l),
(132,700,l)
);
}
);
width = 647;
}
);
metricLeft = "=H";
metricRight = "=O";
unicode = 68;
userData = {
KernOnName = D;
};
}
{
color = 6;
glyphname = F;
kernLeft = KO_H;
kernRight = KO_F;
layers = (
{
anchors = (
{
name = bottom;
pos = (286,0);
},
{
name = top;
pos = (286,700);
}
);
layerId = "7B07347B-11DE-4909-BA20-F43005BA30D7";
shapes = (
{
closed = 1;
nodes = (
(52,0,l),
(197,0,l),
(197,700,l),
(52,700,l)
);
},
{
closed = 1;
nodes = (
(197,269,l),
(489,269,l),
(489,395,l),
(197,395,l)
);
},
{
closed = 1;
nodes = (
(107,574,l),
(529,574,l),
(529,700,l),
(107,700,l)
);
}
);
width = 571;
},
{
anchors = (
{
name = bottom;
pos = (291,0);
},
{
name = top;
pos = (291,700);
}
);
layerId = "A0F3C0B3-6058-4691-93DD-C4034CAB0732";
shapes = (
{
closed = 1;
nodes = (
(57,0,l),
(132,0,l),
(132,700,l),
(57,700,l)
);
},
{
closed = 1;
nodes = (
(83,298,l),
(494,298,l),
(494,366,l),
(83,366,l)
);
},
{
closed = 1;
nodes = (
(112,632,l),
(534,632,l),
(534,700,l),
(112,700,l)
);
}
);
width = 581;
}
);
metricLeft = "=H";
metricRight = "=E";
unicode = 70;
userData = {
KernOnName = F;
};
}
{
color = 6;
glyphname = O;
kernLeft = KO_O;
kernRight = KO_O;
layers = (
{
anchors = (
{
name = bottom;
pos = (374,0);
},
{
name = center;
pos = (374,350);
},
{
name = ogonek;
pos = (672,10);
},
{
name = top;
pos = (374,700);
},
{
name = topleft;
pos = (20,700);
},
{
name = topright;
pos = (727,700);
}
);
layerId = "7B07347B-11DE-4909-BA20-F43005BA30D7";
shapes = (
{
closed = 1;
nodes = (
(596,-16,o),
(719,148,o),
(719,351,cs),
(719,552,o),
(596,716,o),
(374,716,cs),
(151,716,o),
(28,552,o),
(28,351,cs),
(28,148,o),
(151,-16,o),
(374,-16,cs)
);
},
{
closed = 1;
nodes = (
(237,116,o),
(179,231,o),
(179,351,cs),
(179,469,o),
(237,584,o),
(374,584,cs),
(510,584,o),
(568,469,o),
(568,351,cs),
(568,231,o),
(510,116,o),
(374,116,cs)
);
}
);
width = 747;
},
{
anchors = (
{
name = bottom;
pos = (379,0);
},
{
name = center;
pos = (379,350);
},
{
name = ogonek;
pos = (677,10);
},
{
name = top;
pos = (379,700);
},
{
name = topleft;
pos = (25,700);
},
{
name = topright;
pos = (732,700);
}
);
layerId = "A0F3C0B3-6058-4691-93DD-C4034CAB0732";
shapes = (
{
closed = 1;
nodes = (
(601,-16,o),
(724,148,o),
(724,351,cs),
(724,552,o),
(601,716,o),
(379,716,cs),
(156,716,o),
(33,552,o),
(33,351,cs),
(33,148,o),
(156,-16,o),
(379,-16,cs)
);
},
{
closed = 1;
nodes = (
(203,56,o),
(111,191,o),
(111,351,cs),
(111,509,o),
(203,644,o),
(379,644,cs),
(555,644,o),
(646,509,o),
(646,351,cs),
(646,191,o),
(555,56,o),
(379,56,cs)
);
}
);
width = 757;
}
);
unicode = 79;
userData = {
KernOnName = O;
};
}
{
color = 6;
glyphname = S;
kernLeft = KO_S;
kernRight = KO_S;
layers = (
{
anchors = (
{
name = bottom;
pos = (318,0);
},
{
name = top;
pos = (318,700);
}
);
layerId = "7B07347B-11DE-4909-BA20-F43005BA30D7";
shapes = (
{
closed = 1;
nodes = (
(35,223,l),
(40,85,o),
(162,-16,o),
(323,-16,cs),
(499,-16,o),
(601,59,o),
(601,189,cs),
(601,475,o),
(194,370,o),
(194,510,cs),
(194,552,o),
(236,584,o),
(314,584,cs),
(393,584,o),
(432,544,o),
(438,478,c),
(590,478,l),
(590,614,o),
(474,716,o),
(319,716,cs),
(159,716,o),
(43,629,o),
(43,510,cs),
(43,221,o),
(450,317,o),
(450,189,cs),
(450,138,o),
(397,116,o),
(329,116,cs),
(253,116,o),
(195,157,o),
(188,223,c)
);
}
);
width = 636;
},
{
anchors = (
{
name = bottom;
pos = (323,0);
},
{
name = top;
pos = (323,700);
}
);
layerId = "A0F3C0B3-6058-4691-93DD-C4034CAB0732";
shapes = (
{
closed = 1;
nodes = (
(40,223,l),
(45,87,o),
(165,-16,o),
(328,-16,cs),
(502,-16,o),
(606,58,o),
(606,189,cs),
(606,465,o),
(126,310,o),
(126,510,cs),
(126,592,o),
(191,644,o),
(319,644,cs),
(448,644,o),
(507,584,o),
(513,478,c),
(595,478,l),
(595,619,o),
(474,716,o),
(324,716,cs),
(154,716,o),
(48,622,o),
(48,510,cs),
(48,231,o),
(528,377,o),
(528,189,cs),
(528,108,o),
(452,56,o),
(334,56,cs),
(218,56,o),
(130,117,o),
(123,223,c)
);
}
);
width = 646;
}
);
unicode = 83;
userData = {
KernOnName = S;
};
}
{
color = 6;
glyphname = X;
kernLeft = KO_X;
kernRight = KO_X;
layers = (
{
anchors = (
{
name = bottom;
pos = (335,0);
},
{
name = top;
pos = (335,700);
}
);
layerId = "7B07347B-11DE-4909-BA20-F43005BA30D7";
shapes = (
{
closed = 1;
nodes = (
(649,0,l),
(191,700,l),
(23,700,l),
(481,0,l)
);
},
{
closed = 1;
nodes = (
(646,700,l),
(478,700,l),
(20,0,l),
(188,0,l)
);
}
);
width = 669;
},
{
anchors = (
{
name = bottom;
pos = (300,0);
},
{
name = top;
pos = (300,700);
}
);
layerId = "A0F3C0B3-6058-4691-93DD-C4034CAB0732";
shapes = (
{
closed = 1;
nodes = (
(574,0,l),
(116,700,l),
(28,700,l),
(486,0,l)
);
},
{
closed = 1;
nodes = (
(571,700,l),
(483,700,l),
(25,0,l),
(113,0,l)
);
}
);
width = 599;
}
);
unicode = 88;
userData = {
KernOnName = X;
};
}
{
color = 6;
glyphname = underscore;
kernLeft = KO_underscore;
kernRight = KO_underscore;
layers = (
{
layerId = "A0F3C0B3-6058-4691-93DD-C4034CAB0732";
shapes = (
{
closed = 1;
nodes = (
(46,-92,l),
(536,-92,l),
(536,-30,l),
(46,-30,l)
);
}
);
width = 581;
},
{
layerId = "7B07347B-11DE-4909-BA20-F43005BA30D7";
shapes = (
{
closed = 1;
nodes = (
(41,-152,l),
(531,-152,l),
(531,-30,l),
(41,-30,l)
);
}
);
width = 571;
}
);
unicode = 95;
}
{
color = 6;
glyphname = d;
kernLeft = KO_d;
kernRight = KO_l;
layers = (
{
anchors = (
{
name = bottom;
pos = (313,0);
},
{
name = center;
pos = (469,600);
},
{
name = top;
pos = (313,560);
},
{
name = topright;
pos = (605,750);
}
);
layerId = "7B07347B-11DE-4909-BA20-F43005BA30D7";
shapes = (
{
closed = 1;
nodes = (
(355,-16,o),
(405,13,o),
(437,61,c),
(437,498,l),
(403,548,o),
(352,576,o),
(277,576,cs),
(118,576,o),
(25,453,o),
(25,279,cs),
(25,106,o),
(118,-16,o),
(277,-16,cs)
);
},
{
closed = 1;
nodes = (
(215,112,o),
(171,186,o),
(171,279,cs),
(171,373,o),
(215,448,o),
(302,448,cs),
(394,448,o),
(437,373,o),
(437,279,cs),
(437,186,o),
(394,112,o),
(302,112,cs)
);
},
{
closed = 1;
nodes = (
(580,0,l),
(580,750,l),
(437,750,l),
(437,0,l)
);
}
);
width = 628;
},
{
anchors = (
{
name = bottom;
pos = (303,0);
},
{
name = center;
pos = (451,600);
},
{
name = top;
pos = (303,560);
},
{
name = topright;
pos = (567,750);
}
);
layerId = "A0F3C0B3-6058-4691-93DD-C4034CAB0732";
shapes = (
{
closed = 1;
nodes = (
(382,-16,o),
(448,34,o),
(482,108,c),
(482,450,l),
(446,527,o),
(379,576,o),
(282,576,cs),
(133,576,o),
(30,453,o),
(30,279,cs),
(30,106,o),
(133,-16,o),
(282,-16,cs)
);
},
{
closed = 1;
nodes = (
(180,52,o),
(106,136,o),
(106,279,cs),
(106,423,o),
(180,508,o),
(287,508,cs),
(416,508,o),
(482,413,o),
(482,279,cs),
(482,146,o),
(416,52,o),
(287,52,cs)
);
},
{
closed = 1;
nodes = (
(555,0,l),
(555,750,l),
(482,750,l),
(482,0,l)
);
}
);
width = 608;
}
);
metricLeft = "=o";
metricRight = "=l";
unicode = 100;
userData = {
KernOnName = d;
};
}
{
color = 6;
glyphname = e;
kernLeft = KO_o;
kernRight = KO_e;
layers = (
{
anchors = (
{
name = bottom;
pos = (298,0);
},
{
name = ogonek;
pos = (410,0);
},
{
name = top;
pos = (298,560);
}
);
layerId = "7B07347B-11DE-4909-BA20-F43005BA30D7";
shapes = (
{
closed = 1;
nodes = (
(106,232,l),
(566,232,l),
(566,348,l),
(106,348,l)
);
},
{
closed = 1;
nodes = (
(417,178,l),
(402,140,o),
(365,112,o),
(311,112,cs),
(208,112,o),
(171,186,o),
(171,279,cs),
(171,373,o),
(208,448,o),
(311,448,cs),
(390,448,o),
(424,393,o),
(424,340,c),
(566,232,l),
(597,451,o),
(463,576,o),
(311,576,cs),
(138,576,o),
(25,453,o),
(25,279,cs),
(25,106,o),
(138,-16,o),
(311,-16,cs),
(447,-16,o),
(544,63,o),
(568,178,c)
);
}
);
width = 595;
},
{
anchors = (
{
name = bottom;
pos = (302,0);
},
{
name = ogonek;
pos = (415,0);
},
{
name = top;
pos = (302,560);
}
);
layerId = "A0F3C0B3-6058-4691-93DD-C4034CAB0732";
shapes = (
{
closed = 1;
nodes = (
(72,255,l),
(572,255,l),
(557,321,l),
(72,321,l)
);
},
{
closed = 1;
nodes = (
(493,177,l),
(471,107,o),
(418,52,o),
(316,52,cs),
(183,52,o),
(106,146,o),
(106,279,cs),
(106,413,o),
(183,508,o),
(316,508,cs),
(435,508,o),
(505,415,o),
(505,279,c),
(572,255,l),
(586,458,o),
(468,576,o),
(316,576,cs),
(143,576,o),
(30,453,o),
(30,279,cs),
(30,106,o),
(143,-16,o),
(316,-16,cs),
(452,-16,o),
(541,62,o),
(570,177,c)
);
}
);
width = 603;
}
);
metricLeft = "=o";
metricRight = "=o";
unicode = 101;
}
{
color = 6;
glyphname = f;
kernLeft = KO_f;
kernRight = KO_f;
layers = (
{
anchors = (
{
name = bottom;
pos = (180,0);
},
{
name = top;
pos = (180,750);
}
);
layerId = "7B07347B-11DE-4909-BA20-F43005BA30D7";
shapes = (
{
closed = 1;
nodes = (
(227,0,l),
(227,578,l),
(227,611,o),
(245,628,o),
(281,628,c),
(331,628,l),
(331,750,l),
(280,750,l),
(149,750,o),
(84,693,o),
(84,578,c),
(84,0,l)
);
},
{
closed = 1;
nodes = (
(20,438,l),
(327,438,l),
(327,560,l),
(20,560,l)
);
}
);
width = 361;
},
{
anchors = (
{
name = bottom;
pos = (185,0);
},
{
name = top;
pos = (185,750);
}
);
layerId = "A0F3C0B3-6058-4691-93DD-C4034CAB0732";
shapes = (
{
closed = 1;
nodes = (
(162,0,l),
(162,638,l),
(162,671,o),
(180,688,o),
(216,688,c),
(336,688,l),
(336,750,l),
(215,750,l),
(124,750,o),
(89,693,o),
(89,638,c),
(89,0,l)
);
},
{
closed = 1;
nodes = (
(25,498,l),
(312,498,l),
(312,560,l),
(25,560,l)
);
}
);
width = 371;
}
);
unicode = 102;
userData = {
KernOnName = f;
};
}
{
color = 6;
glyphname = l;
kernLeft = KO_l;
kernRight = KO_l;
layers = (
{
anchors = (
{
name = bottom;
pos = (120,0);
},
{
name = center;
pos = (120,280);
},
{
name = top;
pos = (105,750);
},
{
name = topright;
pos = (216,750);
}
);
layerId = "7B07347B-11DE-4909-BA20-F43005BA30D7";
shapes = (
{
closed = 1;
nodes = (
(48,0,l),
(191,0,l),
(191,750,l),
(48,750,l)
);
}
);
width = 239;
},
{
anchors = (
{
name = bottom;
pos = (90,0);
},
{
name = center;
pos = (90,280);
},
{
name = top;
pos = (90,750);
},
{
name = topright;
pos = (151,750);
}
);
layerId = "A0F3C0B3-6058-4691-93DD-C4034CAB0732";
shapes = (
{
closed = 1;
nodes = (
(53,0,l),
(126,0,l),
(126,750,l),
(53,750,l)
);
}
);
width = 179;
}
);
unicode = 108;
userData = {
KernOnName = l;
};
}
{
color = 6;
glyphname = n;
kernLeft = KO_n;
kernRight = KO_n;
layers = (
{
anchors = (
{
name = bottom;
pos = (298,0);
},
{
name = top;
pos = (298,560);
}
);
layerId = "7B07347B-11DE-4909-BA20-F43005BA30D7";
shapes = (
{
closed = 1;
nodes = (
(46,0,l),
(189,0,l),
(189,274,ls),
(189,407,o),
(266,452,o),
(326,452,cs),
(402,452,o),
(409,398,o),
(409,332,cs),
(409,0,l),
(552,0,l),
(552,345,ls),
(552,516,o),
(474,576,o),
(366,576,cs),
(261,576,o),
(211,527,o),
(189,474,c),
(189,560,l),
(46,560,l)
);
}
);
width = 596;
},
{
anchors = (
{
name = bottom;
pos = (278,0);
},
{
name = top;
pos = (278,560);
}
);
layerId = "A0F3C0B3-6058-4691-93DD-C4034CAB0732";
shapes = (
{
closed = 1;
nodes = (
(51,0,l),
(124,0,l),
(124,284,ls),
(124,417,o),
(201,512,o),
(301,512,cs),
(397,512,o),
(434,448,o),
(434,332,cs),
(434,0,l),
(507,0,l),
(507,345,ls),
(507,516,o),
(424,576,o),
(316,576,cs),
(208,576,o),
(149,520,o),
(124,462,c),
(124,560,l),
(51,560,l)
);
}
);
width = 556;
}
);
unicode = 110;
userData = {
KernOnName = n;
};
}
{
color = 6;
glyphname = r;
kernLeft = KO_n;
kernRight = KO_r;
layers = (
{
anchors = (
{
name = bottom;
pos = (120,0);
},
{
name = top;
pos = (193,560);
}
);
layerId = "7B07347B-11DE-4909-BA20-F43005BA30D7";
shapes = (
{
closed = 1;
nodes = (
(46,0,l),
(189,0,l),
(189,560,l),
(46,560,l)
);
},
{
closed = 1;
nodes = (
(189,407,o),
(247,436,o),
(366,436,c),
(366,576,l),
(187,576,o),
(174,447,o),
(174,377,c),
(189,274,l)
);
}
);
width = 386;
},
{
anchors = (
{
name = bottom;
pos = (88,0);
},
{
name = top;
pos = (178,560);
}
);
layerId = "A0F3C0B3-6058-4691-93DD-C4034CAB0732";
shapes = (
{
closed = 1;
nodes = (
(51,0,l),
(124,0,l),
(124,560,l),
(51,560,l)
);
},
{
closed = 1;
nodes = (
(124,447,o),
(202,499,o),
(321,499,c),
(321,576,l),
(142,576,o),
(109,447,o),
(109,377,c),
(124,314,l)
);
}
);
width = 344;
}
);
metricLeft = "=n";
unicode = 114;
userData = {
KernOnName = r;
};
}
{
color = 6;
glyphname = s;
kernLeft = KO_s;
kernRight = KO_s;
layers = (
{
anchors = (
{
name = bottom;
pos = (264,0);
},
{
name = top;
pos = (264,560);
}
);
layerId = "7B07347B-11DE-4909-BA20-F43005BA30D7";
shapes = (
{
closed = 1;
nodes = (
(25,177,l),
(29,67,o),
(136,-16,o),
(268,-16,cs),
(409,-16,o),
(503,58,o),
(503,164,cs),
(503,385,o),
(174,292,o),
(174,396,cs),
(174,429,o),
(204,454,o),
(261,454,cs),
(308,454,o),
(346,437,o),
(351,384,c),
(494,384,l),
(494,498,o),
(386,576,o),
(265,576,cs),
(128,576,o),
(32,486,o),
(32,396,cs),
(32,172,o),
(361,257,o),
(361,164,cs),
(361,122,o),
(323,106,o),
(273,106,cs),
(221,106,o),
(175,124,o),
(169,177,c)
);
}
);
width = 528;
},
{
anchors = (
{
name = bottom;
pos = (259,0);
},
{
name = top;
pos = (259,560);
}
);
layerId = "A0F3C0B3-6058-4691-93DD-C4034CAB0732";
shapes = (
{
closed = 1;
nodes = (
(30,177,l),
(34,67,o),
(131,-16,o),
(263,-16,cs),
(404,-16,o),
(488,48,o),
(488,154,cs),
(488,375,o),
(109,252,o),
(109,406,cs),
(109,469,o),
(159,514,o),
(256,514,cs),
(343,514,o),
(411,467,o),
(416,384,c),
(479,384,l),
(479,498,o),
(381,576,o),
(260,576,cs),
(123,576,o),
(37,496,o),
(37,406,cs),
(37,182,o),
(416,297,o),
(416,154,cs),
(416,82,o),
(358,46,o),
(268,46,cs),
(176,46,o),
(105,94,o),
(99,177,c)
);
}
);
width = 518;
}
);
metricRight = "=o";
unicode = 115;
userData = {
KernOnName = s;
};
}
{
color = 6;
glyphname = t;
kernLeft = KO_t;
kernRight = KO_t;
layers = (
{
anchors = (
{
name = bottom;
pos = (201,0);
},
{
name = center;
pos = (174,280);
},
{
name = top;
pos = (174,700);
},
{
name = topright;
pos = (299,750);
}
);
layerId = "7B07347B-11DE-4909-BA20-F43005BA30D7";
shapes = (
{
closed = 1;
nodes = (
(21,438,l),
(316,438,l),
(316,560,l),
(21,560,l)
);
},
{
closed = 1;
nodes = (
(85,172,l),
(85,57,o),
(150,0,o),
(281,0,c),
(332,0,l),
(332,122,l),
(282,122,l),
(246,122,o),
(228,139,o),
(228,172,c),
(228,700,l),
(85,700,l)
);
}
);
width = 362;
},
{
anchors = (
{
name = bottom;
pos = (195,0);
},
{
name = center;
pos = (179,280);
},
{
name = top;
pos = (179,700);
},
{
name = topright;
pos = (255,750);
}
);
layerId = "A0F3C0B3-6058-4691-93DD-C4034CAB0732";
shapes = (
{
closed = 1;
nodes = (
(26,498,l),
(321,498,l),
(321,560,l),
(26,560,l)
);
},
{
closed = 1;
nodes = (
(130,132,l),
(130,57,o),
(175,0,o),
(266,0,c),
(337,0,l),
(337,62,l),
(267,62,l),
(226,62,o),
(203,82,o),
(203,132,c),
(203,700,l),
(130,700,l)
);
}
);
width = 367;
},
{
anchors = (
{
name = bottom;
pos = (195,0);
},
{
name = center;
pos = (179,280);
},
{
name = top;
pos = (179,700);
},
{
name = topright;
pos = (255,750);
}
);
associatedMasterId = "A0F3C0B3-6058-4691-93DD-C4034CAB0732";
layerId = "37AC8580-B516-43E5-B3F5-2DB2DDB3498D";
name = "1 Sep 25 at 14:28";
shapes = (
{
closed = 1;
nodes = (
(26,498,l),
(321,498,l),
(321,560,l),
(91,560,l),
(25,560,l)
);
},
{
closed = 1;
nodes = (
(130,132,l),
(130,57,o),
(175,0,o),
(266,0,c),
(337,0,l),
(337,62,l),
(267,62,l),
(226,62,o),
(203,82,o),
(203,132,c),
(203,700,l),
(130,700,l)
);
}
);
width = 367;
},
{
anchors = (
{
name = bottom;
pos = (201,0);
},
{
name = center;
pos = (174,280);
},
{
name = top;
pos = (174,700);
},
{
name = topright;
pos = (299,750);
}
);
associatedMasterId = "7B07347B-11DE-4909-BA20-F43005BA30D7";
layerId = "D2B27181-188C-482A-B9E2-0505D5460731";
name = "1 Sep 25 at 14:29";
shapes = (
{
closed = 1;
nodes = (
(21,438,l),
(316,438,l),
(316,560,l),
(86,560,l),
(20,560,l)
);
},
{
closed = 1;
nodes = (
(85,172,l),
(85,57,o),
(150,0,o),
(281,0,c),
(332,0,l),
(332,122,l),
(282,122,l),
(246,122,o),
(228,139,o),
(228,172,c),
(228,700,l),
(85,700,l)
);
}
);
width = 362;
}
);
unicode = 116;
userData = {
KernOnName = t;
};
}
{
color = 6;
glyphname = v;
kernLeft = KO_v;
kernRight = KO_v;
layers = (
{
anchors = (
{
name = bottom;
pos = (285,0);
},
{
name = top;
pos = (285,560);
}
);
layerId = "7B07347B-11DE-4909-BA20-F43005BA30D7";
shapes = (
{
closed = 1;
nodes = (
(188,0,l),
(321,0,l),
(171,560,l),
(18,560,l)
);
},
{
closed = 1;
nodes = (
(398,560,l),
(248,0,l),
(381,0,l),
(551,560,l)
);
}
);
width = 569;
},
{
anchors = (
{
name = bottom;
pos = (267,0);
},
{
name = top;
pos = (267,560);
}
);
layerId = "A0F3C0B3-6058-4691-93DD-C4034CAB0732";
shapes = (
{
closed = 1;
nodes = (
(213,0,l),
(286,0,l),
(103,560,l),
(23,560,l)
);
},
{
closed = 1;
nodes = (
(431,560,l),
(248,0,l),
(321,0,l),
(511,560,l)
);
}
);
width = 534;
}
);
unicode = 118;
userData = {
KernOnName = v;
};
}
{
color = 6;
glyphname = y;
kernLeft = KO_v;
kernRight = KO_v;
layers = (
{
anchors = (
{
name = bottom;
pos = (285,0);
},
{
name = top;
pos = (285,560);
}
);
layerId = "7B07347B-11DE-4909-BA20-F43005BA30D7";
shapes = (
{
closed = 1;
nodes = (
(148,-200,l),
(303,-200,o),
(337,-138,o),
(381,0,c),
(551,560,l),
(398,560,l),
(240,4,l),
(223,-45,o),
(209,-78,o),
(148,-78,c),
(87,-78,l),
(87,-200,l)
);
},
{
closed = 1;
nodes = (
(321,0,l),
(171,560,l),
(18,560,l),
(188,0,l)
);
}
);
width = 569;
},
{
anchors = (
{
name = bottom;
pos = (267,0);
},
{
name = top;
pos = (267,560);
}
);
layerId = "A0F3C0B3-6058-4691-93DD-C4034CAB0732";
shapes = (
{
closed = 1;
nodes = (
(128,-200,ls),
(239,-200,o),
(277,-138,o),
(321,0,cs),
(511,560,l),
(431,560,l),
(248,0,l),
(221,-76,o),
(207,-138,o),
(126,-138,cs),
(57,-138,l),
(57,-200,l)
);
},
{
closed = 1;
nodes = (
(286,0,l),
(103,560,l),
(23,560,l),
(213,0,l)
);
}
);
width = 534;
}
);
metricLeft = "=v";
metricRight = "=v";
unicode = 121;
userData = {
KernOnName = y;
};
}
{
color = 6;
glyphname = braceright;
kernLeft = KO_braceright;
layers = (
{
layerId = "A0F3C0B3-6058-4691-93DD-C4034CAB0732";
shapes = (
{
closed = 1;
nodes = (
(34,-172,ls),
(199,-172,o),
(239,-72,o),
(239,56,cs),
(239,161,o),
(259,229,o),
(338,239,c),
(338,305,l),
(259,315,o),
(239,383,o),
(239,488,cs),
(239,616,o),
(199,716,o),
(34,716,cs),
(25,716,l),
(25,663,l),
(34,663,ls),
(145,663,o),
(172,603,o),
(172,461,cs),
(172,336,o),
(209,280,o),
(261,272,c),
(209,264,o),
(172,208,o),
(172,83,cs),
(172,-59,o),
(145,-119,o),
(34,-119,cs),
(25,-119,l),
(25,-172,l)
);
}
);
width = 358;
},
{
layerId = "7B07347B-11DE-4909-BA20-F43005BA30D7";
shapes = (
{
closed = 1;
nodes = (
(47,-172,ls),
(212,-172,o),
(252,-72,o),
(252,56,cs),
(252,143,o),
(272,215,o),
(333,225,c),
(333,319,l),
(272,329,o),
(252,401,o),
(252,488,cs),
(252,616,o),
(212,716,o),
(47,716,cs),
(20,716,l),
(20,636,l),
(47,636,ls),
(124,636,o),
(131,580,o),
(131,461,cs),
(131,336,o),
(168,280,o),
(235,272,c),
(168,264,o),
(131,208,o),
(131,83,cs),
(131,-36,o),
(124,-92,o),
(47,-92,cs),
(20,-92,l),
(20,-172,l)
);
}
);
width = 348;
}
);
metricRight = "=|braceleft";
unicode = 125;
}
{
color = 6;
glyphname = brokenbar;
layers = (
{
layerId = "A0F3C0B3-6058-4691-93DD-C4034CAB0732";
shapes = (
{
closed = 1;
nodes = (
(130,430,l),
(130,750,l),
(57,750,l),
(57,430,l)
);
},
{
closed = 1;
nodes = (
(57,270,l),
(57,-50,l),
(130,-50,l),
(130,270,l)
);
}
);
width = 187;
},
{
layerId = "7B07347B-11DE-4909-BA20-F43005BA30D7";
shapes = (
{
closed = 1;
nodes = (
(197,430,l),
(197,750,l),
(52,750,l),
(52,430,l)
);
},
{
closed = 1;
nodes = (
(52,270,l),
(52,-50,l),
(197,-50,l),
(197,270,l)
);
}
);
width = 249;
}
);
metricRight = "=H";
unicode = 166;
}
{
color = 6;
glyphname = guillemetleft;
kernLeft = KO_guillemetleft;
kernRight = KO_guillemetleft;
layers = (
{
layerId = "A0F3C0B3-6058-4691-93DD-C4034CAB0732";
shapes = (
{
closed = 1;
nodes = (
(35,277,l),
(178,49,l),
(260,49,l),
(117,277,l),
(260,505,l),
(178,505,l)
);
},
{
closed = 1;
nodes = (
(206,277,l),
(349,49,l),
(431,49,l),
(288,277,l),
(431,505,l),
(349,505,l)
);
}
);
width = 471;
},
{
layerId = "7B07347B-11DE-4909-BA20-F43005BA30D7";
shapes = (
{
closed = 1;
nodes = (
(30,277,l),
(173,49,l),
(335,49,l),
(192,277,l),
(335,505,l),
(173,505,l)
);
},
{
closed = 1;
nodes = (
(271,277,l),
(414,49,l),
(576,49,l),
(433,277,l),
(576,505,l),
(414,505,l)
);
}
);
width = 611;
}
);
unicode = 171;
}
{
color = 6;
glyphname = degree;
kernRight = KO_degree;
layers = (
{
layerId = "A0F3C0B3-6058-4691-93DD-C4034CAB0732";
shapes = (
{
closed = 1;
nodes = (
(253,435,o),
(317,499,o),
(317,575,cs),
(317,652,o),
(253,716,o),
(176,716,cs),
(99,716,o),
(35,652,o),
(35,575,cs),
(35,499,o),
(99,435,o),
(176,435,cs)
);
},
{
closed = 1;
nodes = (
(133,499,o),
(101,534,o),
(101,575,cs),
(101,617,o),
(133,652,o),
(176,652,cs),
(219,652,o),
(251,617,o),
(251,575,cs),
(251,534,o),
(219,499,o),
(176,499,cs)
);
}
);
width = 352;
},
{
layerId = "7B07347B-11DE-4909-BA20-F43005BA30D7";
shapes = (
{
closed = 1;
nodes = (
(248,435,o),
(312,499,o),
(312,575,cs),
(312,652,o),
(248,716,o),
(171,716,cs),
(94,716,o),
(30,652,o),
(30,575,cs),
(30,499,o),
(94,435,o),
(171,435,cs)
);
},
{
closed = 1;
nodes = (
(148,535,o),
(131,554,o),
(131,575,cs),
(131,597,o),
(148,616,o),
(171,616,cs),
(194,616,o),
(211,597,o),
(211,575,cs),
(211,554,o),
(194,535,o),
(171,535,cs)
);
}
);
width = 342;
}
);
unicode = 176;
}
{
color = 6;
glyphname = ordmasculine;
layers = (
{
layerId = "A0F3C0B3-6058-4691-93DD-C4034CAB0732";
shapes = (
{
closed = 1;
nodes = (
(310,360,o),
(378,433,o),
(378,537,cs),
(378,642,o),
(310,716,o),
(207,716,cs),
(103,716,o),
(35,642,o),
(35,537,cs),
(35,433,o),
(103,360,o),
(207,360,cs)
);
},
{
closed = 1;
nodes = (
(140,416,o),
(98,464,o),
(98,537,cs),
(98,612,o),
(140,660,o),
(207,660,cs),
(274,660,o),
(315,611,o),
(315,537,cs),
(315,464,o),
(273,416,o),
(207,416,cs)
);
}
);
width = 413;
},
{
layerId = "7B07347B-11DE-4909-BA20-F43005BA30D7";
shapes = (
{
closed = 1;
nodes = (
(305,360,o),
(373,433,o),
(373,537,cs),
(373,642,o),
(305,716,o),
(202,716,cs),
(98,716,o),
(30,642,o),
(30,537,cs),
(30,433,o),
(98,360,o),
(202,360,cs)
);
},
{
closed = 1;
nodes = (
(149,449,o),
(132,491,o),
(132,537,cs),
(132,584,o),
(149,627,o),
(202,627,cs),
(255,627,o),
(272,584,o),
(272,537,cs),
(272,492,o),
(255,449,o),
(202,449,cs)
);
}
);
width = 403;
}
);
unicode = 186;
}
{
color = 6;
glyphname = questiondown;
kernLeft = KO_questiondown;
kernRight = KO_questiondown;
layers = (
{
layerId = "A0F3C0B3-6058-4691-93DD-C4034CAB0732";
shapes = (
{
closed = 1;
nodes = (
(244,370,l),
(244,214,o),
(35,231,o),
(35,49,cs),
(35,-59,o),
(111,-156,o),
(261,-156,cs),
(391,-156,o),
(496,-59,o),
(496,82,c),
(419,82,l),
(413,-14,o),
(361,-84,o),
(256,-84,cs),
(175,-84,o),
(113,-35,o),
(113,49,cs),
(113,182,o),
(322,172,o),
(322,370,c)
);
},
{
closed = 1;
nodes = (
(238,560,l),
(238,467,l),
(327,467,l),
(327,560,l)
);
}
);
width = 531;
},
{
layerId = "7B07347B-11DE-4909-BA20-F43005BA30D7";
shapes = (
{
closed = 1;
nodes = (
(216,343,l),
(216,253,o),
(30,217,o),
(30,62,cs),
(30,-70,o),
(118,-153,o),
(276,-153,cs),
(403,-153,o),
(521,-56,o),
(521,85,c),
(369,85,l),
(363,19,o),
(333,-21,o),
(271,-21,cs),
(205,-21,o),
(181,15,o),
(181,62,cs),
(181,164,o),
(359,170,o),
(359,343,c)
);
},
{
closed = 1;
nodes = (
(211,563,l),
(211,410,l),
(364,410,l),
(364,563,l)
);
}
);
width = 551;
}
);
unicode = 191;
}
{
color = 6;
glyphname = Eth;
kernLeft = KO_Eth;
kernRight = KO_O;
layers = (
{
layerId = "A0F3C0B3-6058-4691-93DD-C4034CAB0732";
shapes = (
{
closed = 1;
nodes = (
(137,0,l),
(212,0,l),
(212,700,l),
(137,700,l)
);
},
{
closed = 1;
nodes = (
(212,0,l),
(349,0,l),
(349,68,l),
(212,68,l)
);
},
{
closed = 1;
nodes = (
(349,0,l),
(571,0,o),
(694,148,o),
(694,351,cs),
(694,552,o),
(571,700,o),
(349,700,c),
(349,632,l),
(530,632,o),
(616,509,o),
(616,351,cs),
(616,191,o),
(530,68,o),
(349,68,c)
);
},
{
closed = 1;
nodes = (
(212,632,l),
(349,632,l),
(349,700,l),
(212,700,l)
);
},
{
closed = 1;
nodes = (
(47,319,l),
(352,319,l),
(352,385,l),
(47,385,l)
);
}
);
width = 727;
},
{
layerId = "7B07347B-11DE-4909-BA20-F43005BA30D7";
shapes = (
{
closed = 1;
nodes = (
(132,0,l),
(277,0,l),
(277,700,l),
(132,700,l)
);
},
{
closed = 1;
nodes = (
(187,0,l),
(394,0,l),
(394,126,l),
(187,126,l)
);
},
{
closed = 1;
nodes = (
(394,0,l),
(616,0,o),
(739,148,o),
(739,351,cs),
(739,552,o),
(616,700,o),
(394,700,c),
(394,574,l),
(530,574,o),
(588,469,o),
(588,351,cs),
(588,231,o),
(530,126,o),
(394,126,c)
);
},
{
closed = 1;
nodes = (
(187,574,l),
(394,574,l),
(394,700,l),
(187,700,l)
);
},
{
closed = 1;
nodes = (
(42,289,l),
(417,289,l),
(417,415,l),
(42,415,l)
);
}
);
width = 767;
}
);
metricRight = "=D";
unicode = 208;
}
{
color = 6;
glyphname = multiply;
kernLeft = KO_multiply;
kernRight = KO_multiply;
layers = (
{
layerId = "A0F3C0B3-6058-4691-93DD-C4034CAB0732";
shapes = (
{
closed = 1;
nodes = (
(107,519,l),
(454,173,l),
(502,220,l),
(154,568,l)
);
},
{
closed = 1;
nodes = (
(454,567,l),
(107,220,l),
(155,173,l),
(502,520,l)
);
}
);
width = 610;
},
{
layerId = "7B07347B-11DE-4909-BA20-F43005BA30D7";
shapes = (
{
closed = 1;
nodes = (
(30,500,l),
(377,153,l),
(463,240,l),
(116,587,l)
);
},
{
closed = 1;
nodes = (
(377,586,l),
(30,240,l),
(116,153,l),
(464,501,l)
);
}
);
width = 494;
}
);
unicode = 215;
}
{
color = 6;
glyphname = divide;
kernLeft = KO_plus;
kernRight = KO_plus;
layers = (
{
layerId = "A0F3C0B3-6058-4691-93DD-C4034CAB0732";
shapes = (
{
closed = 1;
nodes = (
(46,337,l),
(536,337,l),
(536,403,l),
(46,403,l)
);
},
{
closed = 1;
nodes = (
(318,481,o),
(342,504,o),
(342,532,cs),
(342,560,o),
(318,584,o),
(290,584,cs),
(262,584,o),
(239,560,o),
(239,532,cs),
(239,504,o),
(262,481,o),
(290,481,c)
);
},
{
closed = 1;
nodes = (
(319,156,o),
(342,179,o),
(342,207,cs),
(342,236,o),
(319,259,o),
(290,259,cs),
(262,259,o),
(239,236,o),
(239,207,cs),
(239,179,o),
(262,156,o),
(290,156,cs)
);
}
);
width = 581;
},
{
layerId = "7B07347B-11DE-4909-BA20-F43005BA30D7";
shapes = (
{
closed = 1;
nodes = (
(41,309,l),
(531,309,l),
(531,431,l),
(41,431,l)
);
},
{
closed = 1;
nodes = (
(330,481,o),
(367,517,o),
(367,562,cs),
(367,607,o),
(330,644,o),
(285,644,cs),
(240,644,o),
(204,607,o),
(204,562,cs),
(204,517,o),
(240,481,o),
(285,481,cs)
);
},
{
closed = 1;
nodes = (
(330,96,o),
(367,132,o),
(367,177,cs),
(367,222,o),
(330,259,o),
(285,259,cs),
(240,259,o),
(204,222,o),
(204,177,cs),
(204,132,o),
(240,96,o),
(285,96,cs)
);
}
);
width = 571;
},
{
associatedMasterId = "A0F3C0B3-6058-4691-93DD-C4034CAB0732";
layerId = "D9A9D301-6CA1-4512-A282-650CC9BE515F";
name = "1 Sep 25 at 14:37";
shapes = (
{
closed = 1;
nodes = (
(46,339,l),
(536,339,l),
(536,401,l),
(45,401,l)
);
},
{
closed = 1;
nodes = (
(318,481,o),
(342,504,o),
(342,532,cs),
(342,560,o),
(318,584,o),
(290,584,cs),
(262,584,o),
(239,560,o),
(239,532,cs),
(239,504,o),
(262,481,o),
(290,481,c)
);
},
{
closed = 1;
nodes = (
(319,156,o),
(342,179,o),
(342,207,cs),
(342,236,o),
(319,259,o),
(290,259,cs),
(262,259,o),
(239,236,o),
(239,207,cs),
(239,179,o),
(262,156,o),
(290,156,cs)
);
}
);
width = 581;
}
);
metricRight = "=hyphen";
unicode = 247;
}
{
color = 6;
glyphname = dcroat;
kernLeft = KO_d;
kernRight = KO_dcroat;
layers = (
{
layerId = "A0F3C0B3-6058-4691-93DD-C4034CAB0732";
shapes = (
{
closed = 1;
nodes = (
(382,-16,o),
(448,34,o),
(482,108,c),
(482,450,l),
(446,527,o),
(379,576,o),
(282,576,cs),
(133,576,o),
(30,453,o),
(30,279,cs),
(30,106,o),
(133,-16,o),
(282,-16,cs)
);
},
{
closed = 1;
nodes = (
(180,52,o),
(106,136,o),
(106,279,cs),
(106,423,o),
(180,508,o),
(287,508,cs),
(416,508,o),
(482,413,o),
(482,279,cs),
(482,146,o),
(416,52,o),
(287,52,cs)
);
},
{
closed = 1;
nodes = (
(555,0,l),
(555,750,l),
(482,750,l),
(482,0,l)
);
},
{
closed = 1;
nodes = (
(332,624,l),
(635,624,l),
(635,680,l),
(332,680,l)
);
}
);
width = 683;
},
{
layerId = "7B07347B-11DE-4909-BA20-F43005BA30D7";
shapes = (
{
closed = 1;
nodes = (
(355,-16,o),
(405,13,o),
(437,61,c),
(437,498,l),
(403,548,o),
(352,576,o),
(277,576,cs),
(118,576,o),
(25,453,o),
(25,279,cs),
(25,106,o),
(118,-16,o),
(277,-16,cs)
);
},
{
closed = 1;
nodes = (
(215,112,o),
(171,186,o),
(171,279,cs),
(171,373,o),
(215,448,o),
(302,448,cs),
(394,448,o),
(437,373,o),
(437,279,cs),
(437,186,o),
(394,112,o),
(302,112,cs)
);
},
{
closed = 1;
nodes = (
(580,0,l),
(580,750,l),
(437,750,l),
(437,0,l)
);
},
{
closed = 1;
nodes = (
(317,604,l),
(660,604,l),
(660,700,l),
(317,700,l)
);
}
);
width = 703;
}
);
metricRight = "=d-5";
unicode = 273;
userData = {
KernOnName = dcroat;
};
}
{
color = 6;
glyphname = hbar;
kernLeft = KO_hbar;
kernRight = KO_n;
layers = (
{
layerId = "A0F3C0B3-6058-4691-93DD-C4034CAB0732";
shapes = (
{
closed = 1;
nodes = (
(584,0,l),
(584,345,ls),
(584,516,o),
(501,576,o),
(393,576,cs),
(237,576,o),
(185,459,o),
(185,389,c),
(201,284,l),
(201,417,o),
(278,512,o),
(378,512,cs),
(474,512,o),
(511,448,o),
(511,332,cs),
(511,0,l)
);
},
{
closed = 1;
nodes = (
(201,0,l),
(201,750,l),
(128,750,l),
(128,0,l)
);
},
{
closed = 1;
nodes = (
(351,624,l),
(351,680,l),
(48,680,l),
(48,624,l)
);
}
);
width = 633;
},
{
layerId = "7B07347B-11DE-4909-BA20-F43005BA30D7";
shapes = (
{
closed = 1;
nodes = (
(629,0,l),
(629,345,ls),
(629,516,o),
(551,576,o),
(443,576,cs),
(280,576,o),
(250,459,o),
(250,389,c),
(266,274,l),
(266,407,o),
(343,452,o),
(403,452,cs),
(479,452,o),
(486,398,o),
(486,332,cs),
(486,0,l)
);
},
{
closed = 1;
nodes = (
(266,0,l),
(266,750,l),
(123,750,l),
(123,0,l)
);
},
{
closed = 1;
nodes = (
(386,604,l),
(386,700,l),
(43,700,l),
(43,604,l)
);
}
);
width = 673;
}
);
metricRight = "=h";
unicode = 295;
}
{
color = 6;
glyphname = oe;
kernLeft = KO_o;
kernRight = KO_e;
layers = (
{
layerId = "A0F3C0B3-6058-4691-93DD-C4034CAB0732";
shapes = (
{
closed = 1;
nodes = (
(948,-16,o),
(1037,62,o),
(1066,177,c),
(989,177,l),
(967,107,o),
(914,52,o),
(812,52,cs),
(679,52,o),
(602,146,o),
(602,279,cs),
(602,413,o),
(679,508,o),
(812,508,cs),
(929,508,o),
(1000,417,o),
(1001,285,c),
(1044,321,l),
(568,321,l),
(568,255,l),
(1068,255,l),
(1082,458,o),
(964,576,o),
(812,576,cs),
(639,576,o),
(526,453,o),
(526,279,cs),
(526,106,o),
(639,-16,o),
(812,-16,cs)
);
},
{
closed = 1;
nodes = (
(489,-16,o),
(602,106,o),
(602,279,cs),
(602,453,o),
(489,576,o),
(316,576,cs),
(143,576,o),
(30,453,o),
(30,279,cs),
(30,106,o),
(143,-16,o),
(316,-16,cs)
);
},
{
closed = 1;
nodes = (
(194,52,o),
(106,136,o),
(106,279,cs),
(106,423,o),
(194,508,o),
(316,508,cs),
(438,508,o),
(526,423,o),
(526,279,cs),
(526,136,o),
(438,52,o),
(316,52,cs)
);
}
);
width = 1099;
},
{
layerId = "7B07347B-11DE-4909-BA20-F43005BA30D7";
shapes = (
{
closed = 1;
nodes = (
(873,-16,o),
(970,63,o),
(994,178,c),
(843,178,l),
(828,140,o),
(791,112,o),
(737,112,cs),
(634,112,o),
(597,186,o),
(597,279,cs),
(597,373,o),
(634,448,o),
(737,448,cs),
(825,448,o),
(858,379,o),
(849,321,c),
(895,348,l),
(532,348,l),
(532,232,l),
(992,232,l),
(1023,451,o),
(889,576,o),
(737,576,cs),
(564,576,o),
(471,453,o),
(471,279,cs),
(471,106,o),
(564,-16,o),
(737,-16,cs)
);
},
{
closed = 1;
nodes = (
(484,-16,o),
(577,106,o),
(577,279,cs),
(577,453,o),
(484,576,o),
(311,576,cs),
(138,576,o),
(25,453,o),
(25,279,cs),
(25,106,o),
(138,-16,o),
(311,-16,cs)
);
},
{
closed = 1;
nodes = (
(214,112,o),
(171,186,o),
(171,279,cs),
(171,373,o),
(214,448,o),
(311,448,cs),
(408,448,o),
(451,373,o),
(451,279,cs),
(451,186,o),
(408,112,o),
(311,112,cs)
);
}
);
width = 1021;
}
);
metricRight = "=e";
unicode = 339;
}
{
color = 6;
glyphname = Schwa;
kernRight = KO_O;
layers = (
{
layerId = "A0F3C0B3-6058-4691-93DD-C4034CAB0732";
shapes = (
{
closed = 1;
nodes = (
(565,-16,o),
(704,136,o),
(704,351,cs),
(704,565,o),
(565,716,o),
(351,716,cs),
(183,716,o),
(63,618,o),
(34,476,c),
(120,476,l),
(133,549,o),
(214,644,o),
(351,644,cs),
(518,644,o),
(626,527,o),
(626,351,cs),
(626,175,o),
(518,55,o),
(351,55,cs),
(194,55,o),
(90,172,o),
(114,355,c),
(66,318,l),
(660,318,l),
(660,386,l),
(36,386,l),
(10,128,o),
(168,-16,o),
(351,-16,cs)
);
}
);
width = 737;
},
{
layerId = "7B07347B-11DE-4909-BA20-F43005BA30D7";
shapes = (
{
closed = 1;
nodes = (
(562,-16,o),
(701,136,o),
(701,351,cs),
(701,565,o),
(562,716,o),
(348,716,cs),
(180,716,o),
(60,618,o),
(31,476,c),
(187,476,l),
(200,529,o),
(251,590,o),
(348,590,cs),
(495,590,o),
(550,487,o),
(550,351,cs),
(550,215,o),
(495,110,o),
(348,110,cs),
(217,110,o),
(167,232,o),
(180,308,c),
(133,284,l),
(626,284,l),
(626,410,l),
(33,410,l),
(-5,138,o),
(160,-16,o),
(348,-16,cs)
);
}
);
width = 729;
}
);
metricRight = "=O";
unicode = 399;
}
{
color = 6;
glyphname = schwa;
kernLeft = KO_d;
kernRight = KO_o;
layers = (
{
layerId = "A0F3C0B3-6058-4691-93DD-C4034CAB0732";
shapes = (
{
closed = 1;
nodes = (
(531,305,l),
(31,305,l),
(46,239,l),
(531,239,l)
);
},
{
closed = 1;
nodes = (
(110,383,l),
(132,453,o),
(185,508,o),
(287,508,cs),
(420,508,o),
(497,414,o),
(497,281,cs),
(497,147,o),
(420,52,o),
(287,52,cs),
(168,52,o),
(98,145,o),
(98,281,c),
(31,305,l),
(17,102,o),
(135,-16,o),
(287,-16,cs),
(460,-16,o),
(573,107,o),
(573,281,cs),
(573,454,o),
(460,576,o),
(287,576,cs),
(151,576,o),
(62,498,o),
(33,383,c)
);
}
);
width = 603;
},
{
layerId = "7B07347B-11DE-4909-BA20-F43005BA30D7";
shapes = (
{
closed = 1;
nodes = (
(489,328,l),
(29,328,l),
(29,212,l),
(489,212,l)
);
},
{
closed = 1;
nodes = (
(178,382,l),
(193,420,o),
(230,448,o),
(284,448,cs),
(387,448,o),
(424,374,o),
(424,281,cs),
(424,187,o),
(387,112,o),
(284,112,cs),
(205,112,o),
(171,167,o),
(171,220,c),
(29,328,l),
(-2,109,o),
(132,-16,o),
(284,-16,cs),
(457,-16,o),
(570,107,o),
(570,281,cs),
(570,454,o),
(457,576,o),
(284,576,cs),
(148,576,o),
(51,497,o),
(27,382,c)
);
}
);
width = 595;
}
);
metricRight = "=|e";
unicode = 601;
}
{
color = 6;
glyphname = acutecomb;
layers = (
{
anchors = (
{
name = _top;
pos = (90,560);
},
{
name = top;
pos = (90,750);
}
);
layerId = "A0F3C0B3-6058-4691-93DD-C4034CAB0732";
shapes = (
{
closed = 1;
nodes = (
(112,760,l),
(62,630,l),
(119,630,l),
(212,760,l)
);
}
);
width = 212;
},
{
anchors = (
{
name = _top;
pos = (69,560);
},
{
name = top;
pos = (130,750);
}
);
layerId = "7B07347B-11DE-4909-BA20-F43005BA30D7";
shapes = (
{
closed = 1;
nodes = (
(75,770,l),
(15,630,l),
(132,630,l),
(235,770,l)
);
}
);
width = 230;
},
{
anchors = (
{
name = _top;
pos = (60,560);
},
{
name = top;
pos = (115,750);
}
);
associatedMasterId = "7B07347B-11DE-4909-BA20-F43005BA30D7";
layerId = "49348A71-551D-4201-98D8-F6C5AC6FAE73";
name = "3 Sep 25 at 15:01";
shapes = (
{
closed = 1;
nodes = (
(70,750,l),
(20,610,l),
(117,610,l),
(210,750,l)
);
}
);
width = 230;
}
);
unicode = 769;
}
{
color = 6;
glyphname = dotaccentcomb;
layers = (
{
anchors = (
{
name = _top;
pos = (71,560);
},
{
name = top;
pos = (71,750);
}
);
layerId = "A0F3C0B3-6058-4691-93DD-C4034CAB0732";
shapes = (
{
closed = 1;
nodes = (
(25,651,l),
(117,651,l),
(117,743,l),
(25,743,l)
);
}
);
width = 142;
},
{
anchors = (
{
name = _top;
pos = (80,560);
},
{
name = top;
pos = (80,750);
}
);
layerId = "7B07347B-11DE-4909-BA20-F43005BA30D7";
shapes = (
{
closed = 1;
nodes = (
(13,616,l),
(147,616,l),
(147,750,l),
(13,750,l)
);
}
);
width = 160;
}
);
unicode = 775;
}
{
color = 6;
glyphname = dieresiscomb;
layers = (
{
anchors = (
{
name = _top;
pos = (152,560);
},
{
name = top;
pos = (152,750);
}
);
layerId = "A0F3C0B3-6058-4691-93DD-C4034CAB0732";
shapes = (
{
closed = 1;
nodes = (
(25,652,l),
(116,652,l),
(116,746,l),
(25,746,l)
);
},
{
closed = 1;
nodes = (
(188,652,l),
(279,652,l),
(279,746,l),
(188,746,l)
);
}
);
width = 304;
},
{
anchors = (
{
name = _top;
pos = (193,560);
},
{
name = top;
pos = (193,750);
}
);
layerId = "7B07347B-11DE-4909-BA20-F43005BA30D7";
shapes = (
{
closed = 1;
nodes = (
(15,633,l),
(160,633,l),
(160,767,l),
(15,767,l)
);
},
{
closed = 1;
nodes = (
(226,633,l),
(371,633,l),
(371,767,l),
(226,767,l)
);
}
);
width = 386;
}
);
unicode = 776;
}
{
color = 6;
glyphname = commaaccentcomb;
layers = (
{
anchors = (
{
name = _bottom;
pos = (83,0);
},
{
name = bottom;
pos = (83,-211);
}
);
layerId = "A0F3C0B3-6058-4691-93DD-C4034CAB0732";
shapes = (
{
closed = 1;
nodes = (
(101,-211,o),
(130,-187,o),
(130,-140,cs),
(130,-47,l),
(35,-47,l),
(35,-140,l),
(84,-140,l),
(84,-159,o),
(77,-170,o),
(57,-170,c),
(57,-211,l)
);
}
);
width = 165;
},
{
anchors = (
{
name = _bottom;
pos = (106,0);
},
{
name = bottom;
pos = (106,-273);
}
);
layerId = "7B07347B-11DE-4909-BA20-F43005BA30D7";
shapes = (
{
closed = 1;
nodes = (
(131,-273,o),
(175,-241,o),
(175,-177,cs),
(175,-42,l),
(36,-42,l),
(36,-177,l),
(107,-177,l),
(107,-202,o),
(98,-217,o),
(71,-217,c),
(71,-273,l)
);
}
);
width = 213;
},
{
anchors = (
{
name = _bottom;
pos = (107,0);
},
{
name = bottom;
pos = (107,-314);
}
);
associatedMasterId = "7B07347B-11DE-4909-BA20-F43005BA30D7";
layerId = "157AEAA0-609B-4CA2-9373-A216DC6AFA8F";
name = "1 Sep 25 at 15:16";
shapes = (
{
closed = 1;
nodes = (
(30,-200,l),
(108,-200,l),
(108,-230,o),
(98,-248,o),
(65,-248,c),
(65,-314,l),
(137,-314,o),
(183,-276,o),
(183,-200,cs),
(183,-47,l),
(30,-47,l)
);
}
);
width = 213;
}
);
unicode = 806;
}
{
color = 6;
glyphname = cedillacomb;
layers = (
{
anchors = (
{
name = _bottom;
pos = (57,0);
},
{
name = bottom;
pos = (114,-200);
}
);
layerId = "A0F3C0B3-6058-4691-93DD-C4034CAB0732";
shapes = (
{
closed = 1;
nodes = (
(43,-89,l),
(106,-89,l),
(106,40,l),
(43,40,l)
);
},
{
closed = 1;
nodes = (
(122,-89,o),
(148,-89,o),
(148,-117,cs),
(148,-145,o),
(122,-146,o),
(92,-146,cs),
(20,-146,l),
(20,-200,l),
(104,-200,ls),
(172,-200,o),
(208,-174,o),
(208,-117,cs),
(208,-61,o),
(172,-35,o),
(92,-35,c),
(92,-89,l)
);
}
);
width = 228;
},
{
anchors = (
{
name = _bottom;
pos = (110,0);
},
{
name = bottom;
pos = (169,-220);
}
);
layerId = "7B07347B-11DE-4909-BA20-F43005BA30D7";
shapes = (
{
closed = 1;
nodes = (
(83,-91,l),
(176,-91,l),
(176,40,l),
(83,40,l)
);
},
{
closed = 1;
nodes = (
(153,-91,o),
(158,-98,o),
(158,-108,cs),
(158,-118,o),
(153,-125,o),
(131,-125,cs),
(55,-125,l),
(55,-200,l),
(169,-200,ls),
(247,-200,o),
(289,-164,o),
(289,-108,cs),
(289,-52,o),
(247,-25,o),
(167,-25,c),
(131,-91,l)
);
}
);
width = 294;
},
{
anchors = (
{
name = _bottom;
pos = (95,0);
},
{
name = bottom;
pos = (154,-220);
}
);
associatedMasterId = "7B07347B-11DE-4909-BA20-F43005BA30D7";
layerId = "856F25F0-7A33-4287-A51D-C60D5FA87A2C";
name = "3 Sep 25 at 15:18";
shapes = (
{
closed = 1;
nodes = (
(58,-114,l),
(171,-114,l),
(171,40,l),
(58,40,l)
);
},
{
closed = 1;
nodes = (
(170,-114,o),
(178,-124,o),
(178,-134,cs),
(178,-145,o),
(170,-155,o),
(152,-155,c),
(30,-155,l),
(30,-243,l),
(154,-243,l),
(232,-243,o),
(274,-200,o),
(274,-134,cs),
(274,-68,o),
(232,-25,o),
(152,-25,c),
(152,-114,l)
);
}
);
width = 304;
},
{
anchors = (
{
name = _bottom;
pos = (72,0);
},
{
name = bottom;
pos = (129,-243);
}
);
associatedMasterId = "A0F3C0B3-6058-4691-93DD-C4034CAB0732";
layerId = "A90DC09F-6A28-4264-B35E-5B651FB693E6";
name = "3 Sep 25 at 15:18";
shapes = (
{
closed = 1;
nodes = (
(53,-89,l),
(126,-89,l),
(126,40,l),
(53,40,l)
);
},
{
closed = 1;
nodes = (
(129,-89,o),
(163,-98,o),
(163,-134,cs),
(163,-170,o),
(129,-179,o),
(107,-179,c),
(35,-179,l),
(35,-233,l),
(109,-233,l),
(177,-233,o),
(223,-190,o),
(223,-134,cs),
(223,-78,o),
(177,-35,o),
(107,-35,c),
(107,-89,l)
);
}
);
width = 258;
}
);
unicode = 807;
}
{
color = 6;
glyphname = dagger;
kernLeft = KO_dagger;
layers = (
{
layerId = "A0F3C0B3-6058-4691-93DD-C4034CAB0732";
shapes = (
{
closed = 1;
nodes = (
(175,-50,l),
(248,-50,l),
(248,750,l),
(175,750,l)
);
},
{
closed = 1;
nodes = (
(20,479,l),
(403,479,l),
(403,545,l),
(20,545,l)
);
}
);
width = 423;
},
{
layerId = "7B07347B-11DE-4909-BA20-F43005BA30D7";
shapes = (
{
closed = 1;
nodes = (
(150,-50,l),
(295,-50,l),
(295,750,l),
(150,750,l)
);
},
{
closed = 1;
nodes = (
(15,446,l),
(430,446,l),
(430,572,l),
(15,572,l)
);
}
);
width = 445;
},
{
associatedMasterId = "7B07347B-11DE-4909-BA20-F43005BA30D7";
layerId = "E7DF482C-7542-4D64-A1F6-A92A312ED071";
name = "1 Sep 25 at 17:47";
shapes = (
{
closed = 1;
nodes = (
(120,-50,l),
(265,-50,l),
(265,750,l),
(120,750,l)
);
},
{
closed = 1;
nodes = (
(15,496,l),
(370,496,l),
(370,622,l),
(15,622,l)
);
}
);
width = 385;
}
);
unicode = 8224;
}
{
color = 6;
glyphname = bullet;
kernRight = KO_bullet;
layers = (
{
layerId = "A0F3C0B3-6058-4691-93DD-C4034CAB0732";
shapes = (
{
closed = 1;
nodes = (
(142,260,o),
(173,292,o),
(173,330,cs),
(173,368,o),
(142,399,o),
(104,399,cs),
(66,399,o),
(35,368,o),
(35,330,cs),
(35,292,o),
(66,260,o),
(104,260,cs)
);
}
);
width = 208;
},
{
layerId = "7B07347B-11DE-4909-BA20-F43005BA30D7";
shapes = (
{
closed = 1;
nodes = (
(185,228,o),
(230,275,o),
(230,330,cs),
(230,385,o),
(185,431,o),
(130,431,cs),
(75,431,o),
(30,385,o),
(30,330,cs),
(30,275,o),
(75,228,o),
(130,228,cs)
);
}
);
width = 260;
}
);
unicode = 8226;
}
{
color = 3;
glyphname = perthousand;
kernLeft = KO_percent;
kernRight = KO_percent;
layers = (
{
layerId = "A0F3C0B3-6058-4691-93DD-C4034CAB0732";
shapes = (
{
closed = 1;
nodes = (
(1229,-16,o),
(1285,82,o),
(1285,204,cs),
(1285,325,o),
(1229,423,o),
(1108,423,cs),
(986,423,o),
(930,325,o),
(930,204,cs),
(930,82,o),
(986,-16,o),
(1108,-16,cs)
);
},
{
ref = percent;
},
{
closed = 1;
nodes = (
(1043,49,o),
(1005,116,o),
(1005,204,cs),
(1005,291,o),
(1043,358,o),
(1108,358,cs),
(1172,358,o),
(1210,291,o),
(1210,204,cs),
(1210,116,o),
(1172,49,o),
(1108,49,cs)
);
}
);
width = 1320;
},
{
layerId = "7B07347B-11DE-4909-BA20-F43005BA30D7";
shapes = (
{
closed = 1;
nodes = (
(1264,-16,o),
(1320,82,o),
(1320,204,cs),
(1320,325,o),
(1264,423,o),
(1143,423,cs),
(1021,423,o),
(965,325,o),
(965,204,cs),
(965,82,o),
(1021,-16,o),
(1143,-16,cs)
);
},
{
ref = percent;
},
{
closed = 1;
nodes = (
(1105,103,o),
(1086,142,o),
(1086,204,cs),
(1086,265,o),
(1105,304,o),
(1143,304,cs),
(1180,304,o),
(1199,265,o),
(1199,204,cs),
(1199,142,o),
(1180,103,o),
(1143,103,cs)
);
}
);
width = 1355;
}
);
metricLeft = percent;
metricRight = percent;
unicode = 8240;
}
{
color = 6;
glyphname = won;
layers = (
{
layerId = "A0F3C0B3-6058-4691-93DD-C4034CAB0732";
shapes = (
{
closed = 1;
nodes = (
(309,0,l),
(138,700,l),
(60,700,l),
(241,0,l)
);
},
{
closed = 1;
nodes = (
(518,700,l),
(440,700,l),
(269,0,l),
(337,0,l)
);
},
{
closed = 1;
nodes = (
(708,0,l),
(537,700,l),
(459,700,l),
(640,0,l)
);
},
{
closed = 1;
nodes = (
(917,700,l),
(839,700,l),
(668,0,l),
(736,0,l)
);
},
{
closed = 1;
nodes = (
(35,418,l),
(942,418,l),
(942,484,l),
(35,484,l)
);
},
{
closed = 1;
nodes = (
(35,224,l),
(942,224,l),
(942,290,l),
(35,290,l)
);
}
);
width = 977;
},
{
layerId = "7B07347B-11DE-4909-BA20-F43005BA30D7";
shapes = (
{
closed = 1;
nodes = (
(369,0,l),
(198,700,l),
(55,700,l),
(236,0,l)
);
},
{
closed = 1;
nodes = (
(612,700,l),
(469,700,l),
(298,0,l),
(431,0,l)
);
},
{
closed = 1;
nodes = (
(798,0,l),
(627,700,l),
(484,700,l),
(665,0,l)
);
},
{
closed = 1;
nodes = (
(1041,700,l),
(898,700,l),
(727,0,l),
(860,0,l)
);
},
{
closed = 1;
nodes = (
(30,388,l),
(1066,388,l),
(1066,484,l),
(30,484,l)
);
},
{
closed = 1;
nodes = (
(30,224,l),
(1066,224,l),
(1066,320,l),
(30,320,l)
);
}
);
width = 1096;
}
);
metricRight = "=W+10";
unicode = 8361;
}
{
color = 6;
glyphname = sheqel;
layers = (
{
layerId = "A0F3C0B3-6058-4691-93DD-C4034CAB0732";
shapes = (
{
closed = 1;
nodes = (
(435,178,l),
(435,574,ls),
(435,665,o),
(378,700,o),
(323,700,cs),
(84,700,l),
(84,632,l),
(310,632,ls),
(343,632,o),
(360,609,o),
(360,573,cs),
(360,178,l)
);
},
{
closed = 1;
nodes = (
(132,0,l),
(132,700,l),
(57,700,l),
(57,0,l)
);
},
{
closed = 1;
nodes = (
(559,0,l),
(559,68,l),
(333,68,ls),
(300,68,o),
(283,91,o),
(283,127,cs),
(283,522,l),
(208,522,l),
(208,126,ls),
(208,35,o),
(265,0,o),
(320,0,cs)
);
},
{
closed = 1;
nodes = (
(586,0,l),
(586,700,l),
(511,700,l),
(511,0,l)
);
}
);
width = 643;
},
{
layerId = "7B07347B-11DE-4909-BA20-F43005BA30D7";
shapes = (
{
closed = 1;
nodes = (
(536,182,l),
(536,504,ls),
(536,635,o),
(479,700,o),
(364,700,cs),
(82,700,l),
(82,574,l),
(355,574,ls),
(382,574,o),
(391,563,o),
(391,533,cs),
(391,182,l)
);
},
{
closed = 1;
nodes = (
(197,0,l),
(197,700,l),
(52,700,l),
(52,0,l)
);
},
{
closed = 1;
nodes = (
(675,0,l),
(675,126,l),
(402,126,ls),
(375,126,o),
(366,137,o),
(366,167,cs),
(366,518,l),
(221,518,l),
(221,196,ls),
(221,65,o),
(278,0,o),
(393,0,cs)
);
},
{
closed = 1;
nodes = (
(705,0,l),
(705,700,l),
(560,700,l),
(560,0,l)
);
}
);
width = 757;
}
);
metricRight = "=H";
unicode = 8362;
}
{
color = 6;
glyphname = ruble;
layers = (
{
layerId = "A0F3C0B3-6058-4691-93DD-C4034CAB0732";
shapes = (
{
closed = 1;
nodes = (
(142,0,l),
(217,0,l),
(217,700,l),
(142,700,l)
);
},
{
closed = 1;
nodes = (
(52,260,l),
(364,260,l),
(364,326,l),
(52,326,l)
);
},
{
closed = 1;
nodes = (
(364,260,l),
(556,260,o),
(669,320,o),
(669,481,cs),
(669,642,o),
(556,700,o),
(364,700,c),
(364,634,l),
(510,634,o),
(591,601,o),
(591,481,cs),
(591,361,o),
(510,326,o),
(364,326,c)
);
},
{
closed = 1;
nodes = (
(197,634,l),
(364,634,l),
(364,700,l),
(197,700,l)
);
},
{
closed = 1;
nodes = (
(52,124,l),
(364,124,l),
(364,190,l),
(52,190,l)
);
}
);
width = 708;
},
{
layerId = "7B07347B-11DE-4909-BA20-F43005BA30D7";
shapes = (
{
closed = 1;
nodes = (
(137,0,l),
(282,0,l),
(282,700,l),
(137,700,l)
);
},
{
closed = 1;
nodes = (
(47,230,l),
(379,230,l),
(379,356,l),
(47,356,l)
);
},
{
closed = 1;
nodes = (
(379,230,l),
(561,230,o),
(684,294,o),
(684,465,cs),
(684,636,o),
(561,700,o),
(379,700,c),
(379,574,l),
(475,574,o),
(533,555,o),
(533,465,cs),
(533,375,o),
(475,356,o),
(379,356,c)
);
},
{
closed = 1;
nodes = (
(192,574,l),
(379,574,l),
(379,700,l),
(192,700,l)
);
},
{
closed = 1;
nodes = (
(47,69,l),
(379,69,l),
(379,195,l),
(47,195,l)
);
}
);
width = 718;
}
);
metricRight = "=P";
unicode = 8381;
}
{
color = 6;
glyphname = minus;
kernLeft = KO_plus;
kernRight = KO_minus;
layers = (
{
layerId = "A0F3C0B3-6058-4691-93DD-C4034CAB0732";
shapes = (
{
closed = 1;
nodes = (
(45,337,l),
(495,337,l),
(495,403,l),
(45,403,l)
);
}
);
width = 540;
},
{
layerId = "7B07347B-11DE-4909-BA20-F43005BA30D7";
shapes = (
{
closed = 1;
nodes = (
(41,309,l),
(531,309,l),
(531,431,l),
(41,431,l)
);
}
);
width = 571;
}
);
metricRight = "=hyphen";
unicode = 8722;
}
{
color = 6;
glyphname = radical;
kernRight = KO_radical;
layers = (
{
layerId = "A0F3C0B3-6058-4691-93DD-C4034CAB0732";
shapes = (
{
closed = 1;
nodes = (
(193,-1,l),
(258,-1,l),
(103,559,l),
(23,559,l)
);
},
{
closed = 1;
nodes = (
(353,699,l),
(220,-1,l),
(283,-1,l),
(436,699,l)
);
},
{
closed = 1;
nodes = (
(371,631,l),
(570,631,l),
(570,699,l),
(371,699,l)
);
}
);
width = 588;
},
{
layerId = "7B07347B-11DE-4909-BA20-F43005BA30D7";
shapes = (
{
closed = 1;
nodes = (
(188,0,l),
(321,0,l),
(171,560,l),
(18,560,l)
);
},
{
closed = 1;
nodes = (
(381,700,l),
(248,0,l),
(381,0,l),
(534,700,l)
);
},
{
closed = 1;
nodes = (
(429,574,l),
(668,574,l),
(668,700,l),
(429,700,l)
);
}
);
width = 683;
}
);
unicode = 8730;
}
{
color = 6;
glyphname = E.ss01;
kernLeft = KO_E.ss01;
kernRight = KO_E;
layers = (
{
anchors = (
{
name = bottom;
pos = (293,0);
},
{
name = ogonek;
pos = (515,10);
},
{
name = top;
pos = (293,700);
},
{
name = topleft;
pos = (35,700);
}
);
layerId = "A0F3C0B3-6058-4691-93DD-C4034CAB0732";
shapes = (
{
closed = 1;
nodes = (
(132,68,l),
(132,700,l),
(57,700,l),
(57,68,l)
);
},
{
closed = 1;
nodes = (
(538,0,l),
(538,68,l),
(132,68,l),
(132,0,l)
);
},
{
closed = 1;
nodes = (
(494,318,l),
(494,386,l),
(81,386,l),
(81,318,l)
);
},
{
closed = 1;
nodes = (
(534,632,l),
(534,700,l),
(112,700,l),
(112,632,l)
);
}
);
width = 585;
},
{
anchors = (
{
name = bottom;
pos = (293,0);
},
{
name = ogonek;
pos = (519,10);
},
{
name = top;
pos = (293,700);
},
{
name = topleft;
pos = (30,700);
}
);
layerId = "7B07347B-11DE-4909-BA20-F43005BA30D7";
shapes = (
{
closed = 1;
nodes = (
(197,66,l),
(197,700,l),
(52,700,l),
(52,66,l)
);
},
{
closed = 1;
nodes = (
(543,0,l),
(543,126,l),
(197,126,l),
(197,0,l)
);
},
{
closed = 1;
nodes = (
(499,289,l),
(499,415,l),
(197,415,l),
(197,289,l)
);
},
{
closed = 1;
nodes = (
(539,574,l),
(539,700,l),
(197,700,l),
(197,574,l)
);
}
);
width = 585;
}
);
metricLeft = "=E";
metricRight = "=E";
}
{
color = 6;
glyphname = .notdef;
layers = (
{
layerId = "A0F3C0B3-6058-4691-93DD-C4034CAB0732";
shapes = (
{
closed = 1;
nodes = (
(755,0,l),
(755,700,l),
(55,700,l),
(55,0,l)
);
},
{
closed = 1;
nodes = (
(198,268,l),
(613,268,l),
(613,205,l),
(198,205,l)
);
},
{
attr = {
fillColor = (234,255);
};
closed = 1;
nodes = (
(134,480,l),
(355,480,l),
(355,348,l),
(134,348,l)
);
},
{
attr = {
fillColor = (32,28,29,255);
};
closed = 1;
nodes = (
(270,368,l),
(270,453,l),
(154,453,l),
(154,368,l)
);
},
{
attr = {
fillColor = (234,255);
};
closed = 1;
nodes = (
(456,480,l),
(677,480,l),
(677,348,l),
(456,348,l)
);
},
{
attr = {
fillColor = (32,28,29,255);
};
closed = 1;
nodes = (
(592,368,l),
(592,453,l),
(476,453,l),
(476,368,l)
);
}
);
width = 810;
},
{
layerId = "7B07347B-11DE-4909-BA20-F43005BA30D7";
shapes = (
{
closed = 1;
nodes = (
(750,0,l),
(750,700,l),
(50,700,l),
(50,0,l)
);
},
{
closed = 1;
nodes = (
(193,268,l),
(608,268,l),
(608,205,l),
(193,205,l)
);
},
{
attr = {
fillColor = (238,238,238,255);
};
closed = 1;
nodes = (
(129,480,l),
(350,480,l),
(350,348,l),
(129,348,l)
);
},
{
attr = {
fillColor = (32,28,29,255);
};
closed = 1;
nodes = (
(330,375,l),
(330,460,l),
(214,460,l),
(214,375,l)
);
},
{
attr = {
fillColor = (238,238,238,255);
};
closed = 1;
nodes = (
(451,480,l),
(672,480,l),
(672,348,l),
(451,348,l)
);
},
{
attr = {
fillColor = (32,28,29,255);
};
closed = 1;
nodes = (
(652,375,l),
(652,460,l),
(536,460,l),
(536,375,l)
);
}
);
width = 800;
}
);
}
{
color = 6;
glyphname = brevecomb.narrow;
layers = (
{
anchors = (
{
name = _top;
pos = (123,560);
},
{
name = top;
pos = (123,750);
}
);
layerId = "A0F3C0B3-6058-4691-93DD-C4034CAB0732";
shapes = (
{
closed = 1;
nodes = (
(158,754,l),
(158,716,o),
(150,694,o),
(123,694,cs),
(96,694,o),
(88,716,o),
(88,754,c),
(25,754,l),
(25,683,o),
(60,636,o),
(123,636,cs),
(186,636,o),
(221,683,o),
(221,754,c)
);
}
);
width = 246;
},
{
anchors = (
{
name = _top;
pos = (165,560);
},
{
name = top;
pos = (165,750);
}
);
layerId = "7B07347B-11DE-4909-BA20-F43005BA30D7";
shapes = (
{
closed = 1;
nodes = (
(199,771,l),
(200,742,o),
(195,715,o),
(165,715,cs),
(135,715,o),
(131,742,o),
(131,771,c),
(30,771,l),
(32,693,o),
(75,630,o),
(165,630,cs),
(255,630,o),
(298,693,o),
(300,771,c)
);
}
);
width = 330;
}
);
}
{
color = 6;
glyphname = caroncomb.narrow;
layers = (
{
anchors = (
{
name = _top;
pos = (137,560);
},
{
name = top;
pos = (137,750);
}
);
layerId = "A0F3C0B3-6058-4691-93DD-C4034CAB0732";
shapes = (
{
closed = 1;
nodes = (
(172,630,l),
(229,760,l),
(169,760,l),
(120,640,l),
(154,640,l),
(105,760,l),
(45,760,l),
(102,630,l)
);
}
);
width = 274;
},
{
anchors = (
{
name = _top;
pos = (163,560);
},
{
name = top;
pos = (163,750);
}
);
layerId = "7B07347B-11DE-4909-BA20-F43005BA30D7";
shapes = (
{
closed = 1;
nodes = (
(226,630,l),
(315,770,l),
(187,770,l),
(138,638,l),
(188,638,l),
(138,770,l),
(10,770,l),
(99,630,l)
);
}
);
width = 325;
}
);
}
{
color = 6;
glyphname = circumflexcomb.narrow;
layers = (
{
anchors = (
{
name = _top;
pos = (137,560);
},
{
name = top;
pos = (137,750);
}
);
layerId = "A0F3C0B3-6058-4691-93DD-C4034CAB0732";
shapes = (
{
closed = 1;
nodes = (
(102,760,l),
(45,630,l),
(105,630,l),
(158,760,l)
);
},
{
closed = 1;
nodes = (
(169,630,l),
(229,630,l),
(172,760,l),
(116,760,l)
);
}
);
width = 274;
},
{
anchors = (
{
name = _top;
pos = (162,560);
},
{
name = top;
pos = (162,750);
}
);
layerId = "7B07347B-11DE-4909-BA20-F43005BA30D7";
shapes = (
{
closed = 1;
nodes = (
(104,770,l),
(35,630,l),
(132,630,l),
(195,770,l)
);
},
{
closed = 1;
nodes = (
(191,630,l),
(288,630,l),
(219,770,l),
(128,770,l)
);
}
);
width = 323;
}
);
}
{
color = 6;
glyphname = e.ss01;
kernLeft = KO_e.ss01;
kernRight = KO_e;
layers = (
{
anchors = (
{
name = bottom;
pos = (301,0);
},
{
name = ogonek;
pos = (414,0);
},
{
name = top;
pos = (301,560);
}
);
layerId = "A0F3C0B3-6058-4691-93DD-C4034CAB0732";
shapes = (
{
closed = 1;
nodes = (
(585,458,o),
(467,576,o),
(315,576,cs),
(156,576,o),
(48,473,o),
(31,321,c),
(107,321,l),
(121,432,o),
(196,508,o),
(315,508,cs),
(434,508,o),
(504,415,o),
(504,279,c),
(571,255,l)
);
},
{
closed = 1;
nodes = (
(451,-16,o),
(540,62,o),
(569,177,c),
(492,177,l),
(470,107,o),
(417,52,o),
(315,52,cs),
(190,52,o),
(116,135,o),
(107,255,c),
(30,255,l),
(40,95,o),
(150,-16,o),
(315,-16,cs)
);
},
{
closed = 1;
nodes = (
(571,255,l),
(556,321,l),
(107,321,l),
(107,255,l)
);
}
);
width = 602;
},
{
anchors = (
{
name = bottom;
pos = (298,0);
},
{
name = ogonek;
pos = (411,0);
},
{
name = top;
pos = (298,560);
}
);
layerId = "7B07347B-11DE-4909-BA20-F43005BA30D7";
shapes = (
{
closed = 1;
nodes = (
(597,451,o),
(463,576,o),
(311,576,cs),
(162,576,o),
(35,479,o),
(25,298,c),
(176,298,l),
(172,398,o),
(235,448,o),
(311,448,cs),
(390,448,o),
(424,393,o),
(424,340,c),
(566,232,l)
);
},
{
closed = 1;
nodes = (
(447,-16,o),
(544,63,o),
(568,178,c),
(417,178,l),
(402,140,o),
(365,112,o),
(311,112,cs),
(226,112,o),
(187,162,o),
(176,232,c),
(28,232,l),
(47,84,o),
(154,-16,o),
(311,-16,cs)
);
},
{
closed = 1;
nodes = (
(566,232,l),
(566,348,l),
(176,348,l),
(176,232,l)
);
}
);
width = 595;
}
);
metricRight = "=e";
}
{
color = 6;
glyphname = eight.tf;
layers = (
{
layerId = "A0F3C0B3-6058-4691-93DD-C4034CAB0732";
shapes = (
{
closed = 1;
nodes = (
(156,716,o),
(53,622,o),
(53,510,cs),
(53,441,o),
(85,380,o),
(161,352,c),
(80,324,o),
(48,260,o),
(48,190,cs),
(48,78,o),
(146,-15,o),
(315,-16,cs),
(484,-15,o),
(582,78,o),
(582,190,cs),
(582,260,o),
(550,324,o),
(469,352,c),
(545,380,o),
(577,441,o),
(577,510,cs),
(577,622,o),
(474,716,o),
(315,716,cs)
);
},
{
closed = 1;
nodes = (
(126,278,o),
(190,323,o),
(315,323,cs),
(440,323,o),
(494,278,o),
(494,195,cs),
(494,110,o),
(435,56,o),
(315,56,cs),
(195,56,o),
(126,110,o),
(126,195,cs)
);
},
{
closed = 1;
nodes = (
(131,589,o),
(205,644,o),
(315,644,c),
(425,644,o),
(499,589,o),
(499,515,cs),
(499,432,o),
(432,387,o),
(315,387,cs),
(197,387,o),
(131,432,o),
(131,515,cs)
);
}
);
width = 630;
},
{
layerId = "7B07347B-11DE-4909-BA20-F43005BA30D7";
shapes = (
{
closed = 1;
nodes = (
(156,716,o),
(53,622,o),
(53,510,cs),
(53,441,o),
(85,380,o),
(161,352,c),
(80,324,o),
(48,260,o),
(48,190,cs),
(48,78,o),
(146,-15,o),
(315,-16,cs),
(484,-15,o),
(582,78,o),
(582,190,cs),
(582,260,o),
(550,324,o),
(469,352,c),
(545,380,o),
(577,441,o),
(577,510,cs),
(577,622,o),
(474,716,o),
(315,716,cs)
);
},
{
closed = 1;
nodes = (
(199,258,o),
(230,297,o),
(315,297,cs),
(400,297,o),
(431,258,o),
(431,205,cs),
(431,162,o),
(404,116,o),
(315,116,cs),
(226,116,o),
(199,163,o),
(199,205,cs)
);
},
{
closed = 1;
nodes = (
(204,549,o),
(245,584,o),
(315,584,c),
(385,584,o),
(426,549,o),
(426,505,cs),
(426,452,o),
(392,413,o),
(315,413,cs),
(237,413,o),
(204,452,o),
(204,505,cs)
);
}
);
width = 630;
}
);
}
{
color = 6;
glyphname = four.dnom;
layers = (
{
layerId = "7B07347B-11DE-4909-BA20-F43005BA30D7";
shapes = (
{
closed = 1;
nodes = (
(162,0,l),
(254,0,l),
(254,350,l),
(162,350,l)
);
},
{
closed = 1;
nodes = (
(14,71,l),
(291,71,l),
(291,155,l),
(14,155,l)
);
},
{
closed = 1;
nodes = (
(7,154,l),
(7,71,l),
(54,71,l),
(238,350,l),
(147,350,l)
);
}
);
userData = {
RMXScaler = {
height = 50;
weight = -270;
width = 50;
};
};
width = 307;
},
{
layerId = "A0F3C0B3-6058-4691-93DD-C4034CAB0732";
shapes = (
{
closed = 1;
nodes = (
(171,0,l),
(233,0,l),
(233,350,l),
(171,350,l)
);
},
{
closed = 1;
nodes = (
(21,81,l),
(285,81,l),
(285,135,l),
(21,135,l)
);
},
{
closed = 1;
nodes = (
(15,134,l),
(15,81,l),
(46,81,l),
(220,350,l),
(156,350,l)
);
}
);
userData = {
RMXScaler = {
height = 50;
weight = 10;
width = 50;
};
};
width = 299;
}
);
userData = {
KernOnSpecialSpacing = {
L = NoKerning;
R = NoKerning;
};
RMXScaler = {
source = four;
};
};
}
{
color = 6;
glyphname = one.tf;
layers = (
{
layerId = "A0F3C0B3-6058-4691-93DD-C4034CAB0732";
shapes = (
{
closed = 1;
nodes = (
(283,0,l),
(358,0,l),
(358,700,l),
(283,700,l)
);
},
{
closed = 1;
nodes = (
(55,634,l),
(310,634,l),
(310,700,l),
(55,700,l)
);
},
{
closed = 1;
nodes = (
(55,0,l),
(310,0,l),
(310,66,l),
(55,66,l)
);
},
{
closed = 1;
nodes = (
(331,0,l),
(586,0,l),
(586,66,l),
(331,66,l)
);
}
);
width = 630;
},
{
layerId = "7B07347B-11DE-4909-BA20-F43005BA30D7";
shapes = (
{
closed = 1;
nodes = (
(243,0,l),
(388,0,l),
(388,700,l),
(243,700,l)
);
},
{
closed = 1;
nodes = (
(35,574,l),
(270,574,l),
(270,700,l),
(35,700,l)
);
},
{
closed = 1;
nodes = (
(35,0,l),
(270,0,l),
(270,126,l),
(35,126,l)
);
},
{
closed = 1;
nodes = (
(361,0,l),
(596,0,l),
(596,126,l),
(361,126,l)
);
}
);
width = 630;
}
);
}
